<?xml version="1.0" encoding="UTF-8"?>
<svg id="Layer_2" data-name="Layer 2" xmlns="http://www.w3.org/2000/svg" viewBox="0 0 478.57 84.93">
  <defs>
    <style>
      .cls-1 {
        fill: #010101;
      }

      .cls-2 {
        fill: #1c3f51;
      }

      .cls-3 {
        fill: #bfab81;
      }
    </style>
  </defs>
  <g id="Layer_1-2" data-name="Layer 1">
    <g>
      <path class="cls-2" d="M32.49,28.34c.12.67.35,1.3.65,1.89-.3-.6-.52-1.23-.65-1.89Z"/>
      <path class="cls-2" d="M35.25,33c.1.06.2.11.3.13.03,0,.05.01.08.02.01-.11.02-.3.02-.45,0-.13,0-.23,0-.25-.02-.27-.08-.54-.15-.8-.16-.55-.43-1.06-.74-1.54-.28-.44-.6-.85-.98-1.21-.2-.2-.42-.37-.66-.52-.02-.01-.25-.13-.43-.2-.12-.05-.22-.07-.22-.01,0,.02,0,.05,0,.07,0,.02,0,.04.01.06,0,.01,0,.03,0,.04.3.19,2.42,1.58,2.95,4.5l-.22.14s.02.02.03.02Z"/>
      <path class="cls-2" d="M14.84,77.98l3.79-24.26c.29-1.83,1.37-3.44,2.97-4.39l9.09-5.44c1.04-.62,2.19-.91,3.33-.88.23-.44.54-.83,1-1.03.15-.07.32-.11.49-.12.94-2.45,1.47-5.52.18-7.91-.11,0-.23-.02-.36-.05-.31-.08-.6-.25-.85-.46L6.88,50.73c-2.42,1.51-4.98,2.25-6.88,2.13v20.94c0,6.14,4.98,11.12,11.12,11.12h8.11c-2.96-.87-4.89-3.82-4.4-6.95Z"/>
      <path class="cls-1" d="M3.06,44.16l28.7-15.47c-.05-.24-.09-.48-.12-.73-.03-.23.12-.35.29-.37.24-.21.6-.29.94-.19.24.07.47.18.69.32l12.37-6.67-.76-1.31c-1.01-1.74-1.37-3.69-1.15-5.56-.64-.05-1.24-.4-1.58-.99-.15-.25-.23-.52-.26-.79l-.12.07c-1.71,1-3.92.41-4.92-1.3l-1.33-2.28c-1-1.71-.41-3.92,1.3-4.92l6.84-3.98H11.12C4.98,0,0,4.98,0,11.12v35.19c.86-.78,1.89-1.52,3.06-2.15Z"/>
      <path class="cls-2" d="M34.19,46.56s.09-.09.11-.16c.04-.07.06-.16.05-.24,0,.08,0,.17-.05.24-.03.07-.06.12-.11.16Z"/>
      <path class="cls-3" d="M73.81,0h-16.31c.62,1.62-.01,3.5-1.55,4.4l-.12.07c.22.16.41.37.56.62.34.59.35,1.29.08,1.87,1.73.73,3.25,2.01,4.26,3.75l3.74,6.44c1.13,1.94,1.44,4.13,1.05,6.19.79-.12,1.61.25,2.04.98.02.03.03.06.05.09,1.71-.98,3.91-.39,4.9,1.31l1.33,2.28c1,1.71.41,3.92-1.3,4.92l-13.89,8.08c-1.71,1-3.92.41-4.92-1.3l-1.33-2.28c-.99-1.7-.41-3.9,1.28-4.91-.02-.03-.04-.06-.05-.09-.43-.73-.34-1.63.16-2.26-1.98-.68-3.73-2.04-4.86-3.97l-.76-1.31-11.73,7.34c.04.37.04.75-.03,1.12-.01.06-.03.11-.04.16,1.43,2.59.94,5.9-.08,8.57-.04.1-.08.2-.12.3-.02.04-.04.08-.07.11.03-.03.05-.07.07-.11.04-.1.08-.2.12-.3.04.03.07.06.11.1.16.18.21.41.2.65h0s.06.24-.04.79c.76.35,1.45.86,2.03,1.52l7,7.95c1.23,1.39,1.77,3.26,1.48,5.09l-3.79,24.26c-.14.93-.49,1.77-.98,2.5h31.52c6.14,0,11.12-4.98,11.12-11.12V11.12c0-6.14-4.98-11.12-11.12-11.12Z"/>
      <path class="cls-2" d="M35.68,42.63s-.02,0-.03,0c-.2-.03-.55.22-.63.31-.05.05-.09.1-.13.16-.18.25-.3.55-.4.83-.11.32-.2.64-.25.97,0,.04-.02.12-.03.22-.04.29-.09.73-.03.77.05.03.09.07.12.11,0,0,0,0,0,0,.13,0,.26-.06.38-.13.09-.06.17-.12.23-.18.09-.08.16-.18.21-.28.02-.03.03-.06.05-.09-.03-.02-.06-.03-.09-.05,0,0,0,0,0,0-.03-.01-.06-.03-.09-.04,0,0,0,0,0,0-.03-.01-.06-.02-.09-.03-.03-.01-.06-.02-.09-.03,0,0,0,0,0,0-.03,0-.07-.02-.11-.02.1-.86.45-1.64.62-1.96.07.02.15.03.22.05.06.02.12.03.18.05.04.01.07.02.11.03.04.01.07.02.11.04-.01-.33-.09-.54-.11-.61t0,0s0,0,0-.01c0,0,0,0,0,0-.02-.04-.06-.07-.1-.08.09.02.19,0,.27-.04-.09.04-.18.05-.28.04Z"/>
      <path class="cls-2" d="M33.8,46.61c-.11-.04-.21-.13-.25-.26,0,0,0,0,0,0,0,0,0,0,0,0,.03.12.13.21.25.26Z"/>
      <path class="cls-2" d="M32.7,46.76c0,.92.74,1.66,1.66,1.66s1.66-.74,1.66-1.66c0-.33-.1-.64-.27-.9.04-.06.07-.12.1-.18-.03.06-.06.12-.1.18-.03.05-.06.1-.1.14-.24.32-.56.58-.95.7-.42.13-1.02.12-1.2-.35-.01-.03-.02-.06-.02-.09,0,0,0,0,0,0-.12-.24-.13-.54-.11-.83-.41.3-.68.79-.68,1.34Z"/>
    </g>
    <g>
      <path class="cls-2" d="M142.1,43.58v7.2c0,2.39-1.94,4.34-4.34,4.34h-21c-2.39,0-4.34,1.94-4.34,4.34v15.3c0,2.39-1.94,4.34-4.34,4.34h-8.76c-2.39,0-4.34-1.94-4.34-4.34V12.87c0-2.39,1.94-4.34,4.34-4.34h43.1c2.39,0,4.34,1.94,4.34,4.34v6.79c0,2.39-1.94,4.34-4.34,4.34h-25.67c-2.39,0-4.34,1.94-4.34,4.34v6.58c0,2.39,1.94,4.34,4.34,4.34h21c2.39,0,4.34,1.94,4.34,4.34Z"/>
      <path class="cls-2" d="M155.28,74.77V12.85c0-2.38,1.93-4.31,4.31-4.31h8.81c2.38,0,4.31,1.93,4.31,4.31v46.47c0,2.38,1.93,4.31,4.31,4.31h26.03c2.38,0,4.31,1.93,4.31,4.31v6.83c0,2.38-1.93,4.31-4.31,4.31h-43.46c-2.38,0-4.31-1.93-4.31-4.31Z"/>
      <path class="cls-2" d="M230.02,79.09h-8.89c-2.39,0-4.32-1.93-4.32-4.32V12.86c0-2.39,1.93-4.32,4.32-4.32h8.89c2.39,0,4.32,1.93,4.32,4.32v61.91c0,2.39-1.93,4.32-4.32,4.32Z"/>
      <path class="cls-2" d="M275.21,7.71c4.63,0,8.85.59,12.66,1.76,3.8,1.18,7.04,2.87,9.7,5.08,2.66,2.21,4.72,4.93,6.17,8.14,1.45,3.22,2.18,6.9,2.18,11.05s-.73,7.64-2.18,10.89c-1.45,3.25-3.51,6.02-6.17,8.3-2.66,2.28-5.9,4.03-9.7,5.24-3.8,1.21-8.02,1.82-12.66,1.82h-5.42c-2.39,0-4.33,1.94-4.33,4.33v10.43c0,2.39-1.94,4.33-4.33,4.33h-8.78c-2.39,0-4.33-1.94-4.33-4.33V12.66c0-2.31,1.81-4.22,4.12-4.32,2.89-.13,5.87-.26,8.95-.37,4.57-.17,9.27-.26,14.11-.26ZM276.25,44.75c3.6,0,6.54-.95,8.82-2.85,2.28-1.9,3.42-4.58,3.42-8.04s-1.14-6.23-3.42-8.09c-2.28-1.87-5.22-2.8-8.82-2.8-1.8,0-3.6.02-5.39.05-.39,0-.78.02-1.17.03-2.35.06-4.22,1.98-4.22,4.33v13.05c0,2.39,1.94,4.33,4.33,4.33h6.46Z"/>
      <path class="cls-3" d="M364.53,39.54c-2.1,1.97-1.72,5.39.68,6.98,1.26.83,2.38,1.8,3.38,2.89,2.7,2.98,4.05,6.43,4.05,10.38,0,6.43-2.39,11.4-7.16,14.89-4.77,3.49-11.31,5.24-19.61,5.24-2.14,0-4.62-.02-7.42-.05-2.8-.04-5.65-.1-8.56-.21-2.91-.1-5.76-.19-8.56-.26-1.15-.03-2.25-.06-3.29-.1-2.36-.09-4.23-2.04-4.23-4.41V12.82c0-2.39,1.9-4.34,4.28-4.41.92-.03,1.88-.05,2.87-.08,2.63-.07,5.31-.14,8.04-.21,2.73-.07,5.43-.12,8.09-.16,2.66-.03,5.14-.05,7.42-.05,8.02,0,14.25,1.64,18.67,4.93,4.43,3.29,6.64,7.9,6.64,13.85,0,4.01-1.09,7.52-3.27,10.53-.61.85-1.29,1.62-2.04,2.32ZM331.24,26.64v6.74c0,2.44,1.98,4.41,4.41,4.41h7.93c2.97,0,5.36-.74,7.16-2.23,1.8-1.49,2.7-3.48,2.7-5.97,0-4.91-3.7-7.37-11.1-7.37h-6.69c-2.44,0-4.41,1.98-4.41,4.41ZM343.69,65.6c3.8,0,6.73-.69,8.77-2.07,2.04-1.38,3.06-3.46,3.06-6.23,0-2.28-.92-4.05-2.75-5.29-1.83-1.25-4.31-1.87-7.42-1.87h-9.7c-2.44,0-4.41,1.98-4.41,4.41v6.45c0,2.38,1.9,4.34,4.28,4.41.89.03,1.76.05,2.62.08,2.18.07,4.03.1,5.55.1Z"/>
      <path class="cls-3" d="M395.94,79.09h-8.95c-2.37,0-4.29-1.92-4.29-4.29V12.83c0-2.37,1.92-4.29,4.29-4.29h8.95c2.37,0,4.29,1.92,4.29,4.29v61.97c0,2.37-1.92,4.29-4.29,4.29Z"/>
      <path class="cls-3" d="M440.18,7.71c5.74,0,10.96.85,15.67,2.54,4.7,1.7,8.75,4.1,12.14,7.21,3.39,3.11,6,6.88,7.83,11.31,1.83,4.43,2.75,9.37,2.75,14.84s-.92,10.63-2.75,15.1c-1.83,4.46-4.38,8.27-7.63,11.41-3.25,3.15-7.13,5.57-11.62,7.26-4.5,1.7-9.37,2.54-14.63,2.54s-10.27-.09-15.04-.26c-3.15-.12-6.11-.24-8.87-.37-2.29-.11-4.1-1.99-4.1-4.29V12.62c0-2.29,1.79-4.18,4.08-4.29,2.65-.13,5.41-.25,8.27-.36,4.36-.17,8.99-.26,13.9-.26ZM442.36,64.25c2.49,0,4.84-.48,7.05-1.45,2.21-.97,4.15-2.35,5.81-4.15,1.66-1.8,2.96-3.98,3.89-6.54.93-2.56,1.4-5.4,1.4-8.51s-.48-5.91-1.45-8.4c-.97-2.49-2.32-4.62-4.05-6.38-1.73-1.76-3.79-3.11-6.17-4.05-2.39-.93-5.03-1.4-7.94-1.4h-4.72c-.2,0-.4,0-.6,0-2.35.02-4.23,1.95-4.23,4.3v32.27c0,2.35,1.89,4.26,4.24,4.3.42,0,.84.01,1.26.01h5.5Z"/>
    </g>
  </g>
</svg>