<?xml version="1.0" encoding="UTF-8"?>
<svg id="Layer_2" data-name="Layer 2" xmlns="http://www.w3.org/2000/svg" viewBox="0 0 84.94 84.94">
  <defs>
    <style>
      .cls-1 {
        fill: #010101;
      }

      .cls-2 {
        fill: #1c3f51;
      }

      .cls-3 {
        fill: #bfab81;
      }
    </style>
  </defs>
  <g id="Layer_2-2" data-name="Layer 2">
    <g>
      <path class="cls-2" d="M32.49,28.35c.12.67.35,1.3.65,1.89-.3-.6-.52-1.23-.65-1.89Z"/>
      <path class="cls-2" d="M35.25,33.01c.1.06.2.11.3.13.03,0,.05,0,.08.02,0-.11.02-.3.02-.45v-.25c-.02-.27-.08-.54-.15-.8-.16-.55-.43-1.06-.74-1.54-.28-.44-.6-.85-.98-1.21-.2-.2-.42-.37-.66-.52-.02-.01-.25-.13-.43-.2-.12-.05-.22-.07-.22-.01v.07s0,.04,0,.06v.04c.3.19,2.42,1.58,2.95,4.5l-.22.14s.02.02.03.02h.01Z"/>
      <path class="cls-2" d="M14.84,77.99l3.79-24.26c.29-1.83,1.37-3.44,2.97-4.39l9.09-5.44c1.04-.62,2.19-.91,3.33-.88.23-.44.54-.83,1-1.03.15-.07.32-.11.49-.12.94-2.45,1.47-5.52.18-7.91-.11,0-.23-.02-.36-.05-.31-.08-.6-.25-.85-.46L6.88,50.74c-2.42,1.51-4.98,2.25-6.88,2.13v20.94c0,6.14,4.98,11.12,11.12,11.12h8.11c-2.96-.87-4.89-3.82-4.4-6.95h.01Z"/>
      <path class="cls-1" d="M3.06,44.17l28.7-15.47c-.05-.24-.09-.48-.12-.73-.03-.23.12-.35.29-.37.24-.21.6-.29.94-.19.24.07.47.18.69.32l12.37-6.67-.76-1.31c-1.01-1.74-1.37-3.69-1.15-5.56-.64-.05-1.24-.4-1.58-.99-.15-.25-.23-.52-.26-.79l-.12.07c-1.71,1-3.92.41-4.92-1.3l-1.33-2.28c-1-1.71-.41-3.92,1.3-4.92l6.84-3.98H11.12C4.98.01,0,4.99,0,11.13v35.19c.86-.78,1.89-1.52,3.06-2.15Z"/>
      <path class="cls-2" d="M34.19,46.57s.09-.09.11-.16c.04-.07.06-.16.05-.24,0,.08,0,.17-.05.24-.03.07-.06.12-.11.16Z"/>
      <path class="cls-3" d="M73.81.01h-16.31c.62,1.62,0,3.5-1.55,4.4l-.12.07c.22.16.41.37.56.62.34.59.35,1.29.08,1.87,1.73.73,3.25,2.01,4.26,3.75l3.74,6.44c1.13,1.94,1.44,4.13,1.05,6.19.79-.12,1.61.25,2.04.98.02.03.03.06.05.09,1.71-.98,3.91-.39,4.9,1.31l1.33,2.28c1,1.71.41,3.92-1.3,4.92l-13.89,8.08c-1.71,1-3.92.41-4.92-1.3l-1.33-2.28c-.99-1.7-.41-3.9,1.28-4.91-.02-.03-.04-.06-.05-.09-.43-.73-.34-1.63.16-2.26-1.98-.68-3.73-2.04-4.86-3.97l-.76-1.31-11.73,7.34c.04.37.04.75-.03,1.12,0,.06-.03.11-.04.16,1.43,2.59.94,5.9-.08,8.57-.04.1-.08.2-.12.3-.02.04-.04.08-.07.11.03-.03.05-.07.07-.11.04-.1.08-.2.12-.3.04.03.07.06.11.1.16.18.21.41.2.65h0s.06.24-.04.79c.76.35,1.45.86,2.03,1.52l7,7.95c1.23,1.39,1.77,3.26,1.48,5.09l-3.79,24.26c-.14.93-.49,1.77-.98,2.5h31.52c6.14,0,11.12-4.98,11.12-11.12V11.13C84.94,4.99,79.96.01,73.82.01h-.01Z"/>
      <path class="cls-2" d="M35.68,42.64h-.03c-.2-.03-.55.22-.63.31-.05.05-.09.1-.13.16-.18.25-.3.55-.4.83-.11.32-.2.64-.25.97,0,.04-.02.12-.03.22-.04.29-.09.73-.03.77.05.03.09.07.12.11h0c.13,0,.26-.06.38-.13.09-.06.17-.12.23-.18.09-.08.16-.18.21-.28.02-.03.03-.06.05-.09-.03-.02-.06-.03-.09-.05h0s-.06-.03-.09-.04h0s-.06-.02-.09-.03-.06-.02-.09-.03h0s-.07-.02-.11-.02c.1-.86.45-1.64.62-1.96.07.02.15.03.22.05.06.02.12.03.18.05.04,0,.07.02.11.03s.07.02.11.04c0-.33-.09-.54-.11-.61t0,0c.02.07,0,0,0,0h0s-.06-.07-.1-.08c.09.02.19,0,.27-.04-.09.04-.18.05-.28.04l-.04-.03Z"/>
      <path class="cls-2" d="M33.8,46.62c-.11-.04-.21-.13-.25-.26h0c.03.12.13.21.25.26Z"/>
      <path class="cls-2" d="M32.7,46.77c0,.92.74,1.66,1.66,1.66s1.66-.74,1.66-1.66c0-.33-.1-.64-.27-.9.04-.06.07-.12.1-.18-.03.06-.06.12-.1.18-.03.05-.06.1-.1.14-.24.32-.56.58-.95.7-.42.13-1.02.12-1.2-.35,0-.03-.02-.06-.02-.09h0c-.12-.24-.13-.54-.11-.83-.41.3-.68.79-.68,1.34h.01Z"/>
    </g>
  </g>
</svg>