<?xml version="1.0" encoding="UTF-8"?>
<svg id="Layer_2" data-name="Layer 2" xmlns="http://www.w3.org/2000/svg" viewBox="0 0 861.85 787.88">
  <defs>
    <style>
      .cls-1 {
        fill: #1c5276;
      }

      .cls-2 {
        fill: #121d21;
      }

      .cls-2, .cls-3, .cls-4 {
        opacity: .2;
      }

      .cls-5 {
        fill: #996128;
      }

      .cls-6 {
        fill: #ffaa3f;
      }

      .cls-3, .cls-7 {
        fill: #492e13;
      }

      .cls-8 {
        fill: #913f63;
      }

      .cls-4, .cls-9, .cls-10 {
        fill: #fff;
      }

      .cls-9 {
        opacity: .3;
      }

      .cls-11 {
        fill: #3fb8a9;
      }

      .cls-12 {
        fill: #dceceb;
      }

      .cls-13 {
        fill: #cb1e42;
      }

      .cls-14 {
        fill: #f2ba9e;
      }

      .cls-15 {
        fill: #f4d7c7;
      }

      .cls-16 {
        fill: #ffdebb;
      }

      .cls-17 {
        fill: #b1e6e0;
      }

      .cls-18 {
        fill: #b71c41;
      }

      .cls-19 {
        fill: #67a4c3;
      }
    </style>
  </defs>
  <g id="_ÎÓÈ_1" data-name="—ÎÓÈ_1">
    <g>
      <g>
        <g>
          <g>
            <circle class="cls-12" cx="127.56" cy="357.36" r="127.56" transform="translate(-215.33 194.87) rotate(-45)"/>
            <circle class="cls-10" cx="127.56" cy="357.36" r="106.43" transform="translate(-215.33 194.87) rotate(-45)"/>
          </g>
          <g>
            <path class="cls-6" d="M178.47,390.39c-3.26,13.72-13.5,20.74-18.4,23.39-.82.44-1.49,1.09-1.96,1.86-.47.77-.73,1.66-.74,2.6-.01,2.8-2.3,5.07-5.11,5.05l-44.36-.23c-1.4,0-2.67-.58-3.59-1.5-.91-.93-1.47-2.2-1.47-3.6,0-1.86-1.01-3.58-2.65-4.48-4.78-2.65-14.63-9.54-17.96-22.74-1.95-7.71-1.67-17.58,3.14-30,1.46-3.78,2.91-7.29,4.33-10.56,13.92-32.18,24.71-41.71,15.13-61.11-2.13-4.32-2.31-7.55-1.25-9.94,10.6.92,28.9,1.99,44.78.42,3.16-.31,6.22-.72,9.11-1.26,1.65,2.5,1.77,6.05-.77,11.05-9.78,19.3.91,28.94,14.5,61.26.15.34.28.68.43,1.03l.55,1.34c1.07,2.6,2.14,5.34,3.24,8.24,4.52,12.03,4.84,21.63,3.04,29.2Z"/>
            <polygon class="cls-5" points="187.56 423.48 74.75 422.89 74.68 435.86 187.56 436.45 187.56 423.48"/>
            <path class="cls-16" d="M178.47,390.39c-14.35,4.46-47.54,11.25-96.23.34-1.95-7.71-1.67-17.58,3.14-30,1.46-3.78,2.91-7.29,4.33-10.56.62.21,34.78,11.66,81.5.42h0s.42,1.03.42,1.03l.55,1.34c1.07,2.6,2.14,5.34,3.24,8.24,4.52,12.03,4.84,21.63,3.04,29.2Z"/>
            <path class="cls-16" d="M107.47,312.84c.41-2.1.07-3.27.37-3.97.02-.05-3.18.94-3.35,2.74-.19,2.05-.43,4.73-.76,7.05-.21,1.52.87,2.98,2.4,3.08,1.85.12,1.31-2.19,1.34-8.9Z"/>
            <path class="cls-3" d="M178.47,390.39c-3.26,13.72-13.5,20.74-18.4,23.39-.82.44-1.49,1.09-1.96,1.86-.47.77-.73,1.66-.74,2.6-.01,2.8-2.3,5.07-5.11,5.05l-17.01-.09c1.16-4.54,3.09-8.63,6.3-10.48,9.22-5.32,19.11-43.92,15.32-59.3-3.78-15.38-19.04-36.97-13.63-50.8,5.4-13.83,5.12-23.08,5.12-23.08h0c3.16-.31,6.22-.73,9.11-1.27,1.65,2.5,1.77,6.05-.77,11.05-9.78,19.3.91,28.94,14.5,61.26.15.34.28.68.43,1.03l.55,1.34c1.07,2.6,2.14,5.34,3.24,8.24,4.52,12.03,4.84,21.63,3.04,29.2Z"/>
            <path class="cls-7" d="M109.59,311.93l-12.62,5.38-10.92,21.84c-1.57,3.14.2,6.93,3.62,7.73l9.91,2.34c2.52.59,5.11-.67,6.19-3.02l10.71-23.2-6.89-11.08ZM106.23,323.15c-1.79,0-3.23-1.47-3.23-3.26,0-1.79,1.47-3.23,3.26-3.23,1.79,0,3.23,1.47,3.23,3.26,0,1.79-1.47,3.23-3.26,3.23Z"/>
            <path class="cls-16" d="M155.4,311.4l-.03-.04c-.53-.85-1.59-1.2-2.52-.83-3.98,1.59-13.05,3.83-22.75,5.57-10.26,1.84-18.37,1.15-22.25.73-1.32-.14-2.56.7-2.9,1.99-.01.05-.03.11-.04.16-.33,1.43.68,2.82,2.11,3.09,1.28.24,2.8.52,3.3.53,11.33.06,35.55-4.85,44.08-8.19,1.2-.47,1.67-1.91,1-3.01Z"/>
          </g>
        </g>
        <g>
          <g>
            <circle class="cls-12" cx="734.29" cy="363.94" r="127.56" transform="translate(-42.27 625.82) rotate(-45)"/>
            <circle class="cls-10" cx="734.29" cy="363.94" r="106.43"/>
          </g>
          <g>
            <g>
              <path class="cls-13" d="M717.99,425.77c-13.11-13.2-40.37-55.48-33.64-77.5,1.88-6.17,5.19-9.99,9.83-11.36,9.01-2.66,18.94,5.41,20.04,6.33l-2.59,6.22c-2.28-1.91-10.78-7.89-15.65-6.44-2.45.73-4.32,3.12-5.53,7.11-5.25,17.17,17.98,56.97,32.07,71.15l-4.52,4.49Z"/>
              <path class="cls-13" d="M754.74,425.77l-4.52-4.49c14.09-14.18,37.31-53.97,32.07-71.15-1.22-3.99-3.08-6.38-5.53-7.11-4.87-1.45-11.86,3.19-14.14,5.1l-4.1-4.88c1.1-.93,11.04-8.99,20.04-6.33,4.64,1.37,7.95,5.19,9.83,11.36,6.73,22.02-20.53,64.3-33.64,77.5Z"/>
              <path class="cls-13" d="M752.83,438.87v5.66h-32.31v-5.66s-22.62-44.62-16.16-74.01c6.47-29.4,23.88-22.13,15.58-73.83h33.48c-.11.69-.22,1.36-.32,2.02-7.53,49.5,9.52,42.8,15.89,71.81,6.46,29.39-16.16,74.01-16.16,74.01Z"/>
              <path class="cls-13" d="M752.21,293.05h-31.51c-1.9,0-3.43-1.54-3.43-3.43h0c0-1.9,1.54-3.43,3.43-3.43h31.51c1.9,0,3.43,1.54,3.43,3.43h0c0,1.9-1.54,3.43-3.43,3.43Z"/>
              <path class="cls-18" d="M752.83,438.87v5.66h-11.49c.02-1.8.06-3.52.18-4.84.41-4.85,10.1-35.95,12.12-47.67,2.02-11.71-1.61-35.14-7.67-52.51-6.06-17.37,0-46.45,0-46.45h7.13c-7.53,49.5,9.52,42.8,15.89,71.81,6.46,29.39-16.16,74.01-16.16,74.01Z"/>
            </g>
            <path class="cls-8" d="M732.02,341.53c-.14-.02-.27-.02-.41-.04-5.5-.55-9.34-2.29-11.43-5.16-1.27-1.74-1.59-3.51-1.63-4.72-.03-.78.66-1.38,1.43-1.26.54.12.94.59.96,1.15.02.85.25,2.17,1.21,3.47,1.69,2.27,4.95,3.67,9.71,4.15.28.02.55.05.82.06-.34.4-.85,1.2-.65,2.35Z"/>
            <path class="cls-8" d="M719.94,330.34l.09.02s-.04,0-.06,0c0,0-.02,0-.03,0Z"/>
            <path class="cls-10" d="M725.09,334.65l-9.16,33.12,19.12,2.69,8.08-33.91-18.04-1.91ZM731.9,344.11c-1.75,0-3.16-1.42-3.16-3.16s1.42-3.16,3.16-3.16,3.16,1.42,3.16,3.16-1.42,3.16-3.16,3.16Z"/>
            <path class="cls-8" d="M754.71,333.58c-.97,1.04-2.43,2.61-4.62,4.09-2.1,1.41-4.87,2.75-8.52,3.47-1.78.35-3.77.57-5.99.57-1.13,0-2.32-.06-3.56-.18-.2-1.15.31-1.95.65-2.35,10.23.72,17.45-4.73,19.96-6.97.53-.47,1.35-.33,1.69.29.27.49.49.98.39,1.08Z"/>
          </g>
        </g>
        <g>
          <path class="cls-19" d="M660.8,26.51v734.85c0,14.64-11.87,26.51-26.51,26.51H222.16c-14.63,0-26.51-11.87-26.51-26.51V26.51c0-14.64,11.88-26.51,26.51-26.51h412.13c.43,0,.85.01,1.26.03,14.06.66,25.25,12.26,25.25,26.48Z"/>
          <path class="cls-12" d="M636.05,54.97v658.35c0,5.46-4.42,9.89-9.88,9.89H230.28c-5.46,0-9.89-4.43-9.89-9.89V54.97c0-5.46,4.43-9.88,9.89-9.88h395.9c5.46,0,9.88,4.42,9.88,9.88Z"/>
          <rect class="cls-10" x="356.27" y="735.13" width="144.5" height="34.03" rx="16.39" ry="16.39"/>
          <path class="cls-10" d="M441.29,19.57c0,7.05-5.71,12.76-12.76,12.76s-12.76-5.71-12.76-12.76,5.71-12.76,12.76-12.76,12.76,5.71,12.76,12.76Z"/>
          <circle class="cls-10" cx="429.19" cy="367.56" r="161.66" transform="translate(-134.2 411.14) rotate(-45)"/>
          <path class="cls-10" d="M636.05,54.97v34.09H220.39v-34.09c0-5.46,4.43-9.88,9.89-9.88h395.9c5.46,0,9.88,4.42,9.88,9.88Z"/>
          <rect class="cls-12" x="236.81" y="55.02" width="391.39" height="23.82" rx="11.47" ry="11.47"/>
          <polygon class="cls-11" points="600.94 330.7 600.94 404.43 630.43 367.56 600.94 330.7"/>
          <polygon class="cls-11" points="255.12 330.7 255.12 404.43 225.62 367.56 255.12 330.7"/>
          <g>
            <polygon class="cls-15" points="400.05 260.77 395.24 279.98 449.14 279.98 449.14 260.77 400.05 260.77"/>
            <path class="cls-15" d="M533.33,311.67l-10.88,30.42c-2.1,5.83-8.31,9.06-14.28,7.44l-14.27-3.9c-1.08-.29-2.13-.23-3.07.08-2.44.82-4.13,3.38-3.54,6.21,4.18,20.59,1.81,43.32-7.73,68.71-6.61,17.59,8.29,55.02,8.29,55.02h-124.37s-4.84-6.21,3.45-25.99c8.3-19.77,6.91-34.75-6.91-58.04-13.82-23.3,2.07-33.87-2.77-43.54-1.72-3.46-5.83-4.97-10.4-5.49-9.81-1.1-16.75-10.19-15.75-20.02l2-19.69c.8-7.86,6.58-14.32,14.31-15.99l25.35-5.51c8.53-1.84,17.23-2.78,25.95-2.78h47.28c11.28,0,22.5,1.55,33.35,4.63l46.06,13.03c6.61,1.87,10.25,8.94,7.93,15.4Z"/>
            <path class="cls-14" d="M533.65,301.88c-1.59-1.61-4.19-1.6-5.69.09-8.47,9.53-34.42,40.85-14.54,46.11,22.15,5.87,35.91-30.31,20.23-46.21Z"/>
            <path class="cls-14" d="M479.56,420.64c-6.61,17.59,8.29,55.02,8.29,55.02h-19.45c-.79-1.76-1.44-3.72-1.96-5.94-6.91-29.72,13.12-60.13-5.53-55.29-18.66,4.84-44.92-6.87-44.92-6.87-18.25,9.51-37.16-.86-37.98-1.31,17.98,5.59,40.05-8.41,40.05-8.41,0,0,17.28,11.07,37.31,8.39,20.05-2.67,17.98-7,21.42-25.78,3.46-18.77-7.6-22-4.84-35.65,2.77-13.66,18.88.91,18.88.91-2.44.82-4.13,3.38-3.54,6.21,4.18,20.59,1.81,43.32-7.73,68.71Z"/>
            <polygon class="cls-14" points="434.42 260.77 434.42 278.61 449.14 279.98 449.14 260.77 434.42 260.77"/>
          </g>
          <path class="cls-17" d="M547.05,594.11h-211.82c-11.85,0-21.46,9.61-21.46,21.46v33.38c0,11.85,9.61,21.46,21.46,21.46h211.82c11.85,0,21.46-9.61,21.46-21.46v-33.38c0-11.85-9.61-21.46-21.46-21.46Z"/>
          <g>
            <g>
              <rect class="cls-11" x="300.85" y="584.95" width="254.74" height="76.3" rx="24.02" ry="24.02"/>
              <g>
                <path class="cls-10" d="M383.81,640.52v-39.07h12.46c2.4,0,4.47.24,6.2.71,1.73.47,3.16,1.14,4.28,2.02,1.12.87,1.95,1.94,2.48,3.2.54,1.26.8,2.69.8,4.27,0,.96-.15,1.89-.45,2.78-.3.89-.75,1.72-1.36,2.48-.61.76-1.37,1.44-2.29,2.04-.92.6-1.99,1.09-3.23,1.47,2.85.56,5.01,1.59,6.46,3.08,1.45,1.49,2.18,3.45,2.18,5.89,0,1.65-.3,3.16-.91,4.53-.61,1.36-1.5,2.54-2.67,3.52-1.17.98-2.61,1.74-4.31,2.28-1.7.54-3.64.8-5.82.8h-13.82ZM389.1,618.96h6.98c1.49,0,2.78-.16,3.87-.49,1.09-.33,1.99-.78,2.71-1.36.72-.58,1.25-1.29,1.59-2.11.35-.83.52-1.73.52-2.71,0-2.29-.69-3.97-2.07-5.04-1.38-1.07-3.53-1.61-6.43-1.61h-7.17v13.33ZM389.1,622.72v13.6h8.45c1.51,0,2.8-.17,3.88-.52,1.08-.35,1.97-.83,2.67-1.46.7-.63,1.21-1.37,1.54-2.24.33-.86.49-1.81.49-2.85,0-2.02-.71-3.61-2.14-4.78s-3.58-1.76-6.47-1.76h-8.42Z"/>
                <path class="cls-10" d="M425.36,640.52h-5.29v-39.07h5.29v39.07Z"/>
                <path class="cls-10" d="M469.69,621c0,2.93-.46,5.59-1.39,7.99-.93,2.4-2.23,4.45-3.93,6.16-1.69,1.71-3.72,3.03-6.08,3.97-2.36.94-4.98,1.4-7.85,1.4h-14.61v-39.07h14.61c2.87,0,5.49.47,7.85,1.4,2.36.94,4.39,2.26,6.08,3.98,1.69,1.72,3,3.78,3.93,6.17.93,2.4,1.39,5.06,1.39,7.99ZM464.26,621c0-2.4-.33-4.54-.98-6.43-.65-1.89-1.58-3.49-2.78-4.8-1.2-1.31-2.65-2.31-4.36-3-1.71-.69-3.61-1.04-5.7-1.04h-9.3v30.51h9.3c2.09,0,3.99-.34,5.7-1.04,1.71-.69,3.16-1.69,4.36-2.99,1.2-1.3,2.13-2.89,2.78-4.78.65-1.89.98-4.03.98-6.43Z"/>
              </g>
            </g>
            <polygon class="cls-4" points="333.76 661.25 389.1 584.95 420.07 584.95 364.79 661.25 333.76 661.25"/>
            <polygon class="cls-4" points="383.81 661.25 435.83 584.95 445.37 584.95 393.59 661.25 383.81 661.25"/>
          </g>
          <g>
            <rect class="cls-10" x="336.07" y="126.49" width="189.45" height="60.13"/>
            <path class="cls-1" d="M363.53,173.64c-2.06-.19-3.94-.69-5.63-1.52-1.7-.83-3.16-1.88-4.38-3.16l1.35-2.1c.12-.19.29-.34.51-.46.22-.12.45-.18.69-.18.32,0,.69.16,1.1.49.41.32.91.69,1.51,1.11.6.42,1.31.82,2.13,1.21.83.39,1.82.66,2.98.79l.95-13.57c-1.19-.36-2.36-.76-3.51-1.22-1.15-.45-2.18-1.04-3.09-1.77-.91-.73-1.64-1.64-2.2-2.74-.55-1.1-.83-2.48-.83-4.14,0-1.25.24-2.46.73-3.65.49-1.19,1.19-2.24,2.12-3.16.93-.92,2.07-1.68,3.44-2.27,1.36-.59,2.93-.88,4.7-.88l.26-3.73c.03-.32.16-.61.38-.87.22-.26.52-.38.89-.38h1.69l-.36,5.06c1.79.22,3.33.68,4.62,1.38,1.29.7,2.45,1.54,3.47,2.53l-1.1,1.69c-.34.51-.73.77-1.18.77-.24,0-.53-.11-.88-.32-.35-.21-.77-.46-1.26-.74-.49-.28-1.06-.56-1.71-.84-.65-.28-1.39-.48-2.22-.6l-.84,12.37c1.23.38,2.44.79,3.63,1.23,1.19.44,2.26,1.02,3.22,1.72.95.7,1.72,1.58,2.31,2.63.59,1.05.88,2.36.88,3.94s-.26,2.98-.77,4.33c-.51,1.35-1.26,2.54-2.24,3.56-.98,1.03-2.18,1.86-3.6,2.5-1.42.64-3.04.96-4.87.96l-.31,4.57c-.03.32-.17.61-.4.86-.23.25-.52.37-.88.37h-1.69l.38-5.78ZM359.39,145.97c0,.82.14,1.53.43,2.13.29.6.69,1.14,1.2,1.6.51.46,1.11.86,1.79,1.2.68.34,1.42.65,2.22.92l.77-11.52c-1.11.1-2.07.32-2.87.66-.81.34-1.47.77-1.99,1.28-.52.51-.91,1.09-1.16,1.72-.26.64-.38,1.31-.38,2.01ZM373.57,162.94c0-.85-.16-1.58-.47-2.2-.32-.61-.75-1.14-1.29-1.58-.55-.44-1.18-.83-1.92-1.15-.73-.32-1.52-.62-2.35-.89l-.87,12.73c1.11-.1,2.09-.35,2.95-.73.86-.38,1.58-.87,2.17-1.47.59-.6,1.03-1.29,1.33-2.08.3-.79.45-1.66.45-2.62Z"/>
            <g>
              <path class="cls-1" d="M403.85,158.88c-1.41,0-2.74-.23-4-.7-1.26-.47-2.37-1.16-3.32-2.07-.96-.91-1.72-2.03-2.28-3.36-.56-1.33-.85-2.85-.85-4.57s.3-3.16.91-4.59c.61-1.42,1.46-2.67,2.55-3.73,1.09-1.06,2.4-1.89,3.91-2.5,1.51-.61,3.17-.91,4.98-.91s3.41.3,4.87.89c1.46.59,2.71,1.42,3.75,2.48,1.04,1.06,1.85,2.33,2.41,3.81.56,1.48.85,3.11.85,4.9,0,1.08-.1,2.1-.3,3.06-.2.96-.49,1.91-.87,2.83-.38.92-.84,1.84-1.37,2.75-.53.91-1.13,1.85-1.81,2.83l-9.1,13.14c-.23.33-.55.6-.96.79-.42.2-.9.3-1.43.3h-4.27l11.36-14.88c.38-.5.74-.98,1.07-1.43.33-.45.64-.9.94-1.36-.96.76-2.03,1.35-3.23,1.75-1.2.4-2.47.6-3.81.6ZM413.18,147.96c0-1.16-.19-2.22-.56-3.17-.37-.95-.89-1.75-1.55-2.41-.66-.66-1.45-1.17-2.36-1.52-.91-.36-1.92-.53-3.01-.53s-2.19.19-3.14.56c-.95.37-1.76.89-2.42,1.55-.67.66-1.19,1.45-1.55,2.37-.37.92-.55,1.93-.55,3.02,0,1.18.17,2.24.51,3.17.34.93.83,1.72,1.46,2.36.63.64,1.41,1.13,2.32,1.46.91.33,1.93.5,3.06.5,1.25,0,2.36-.2,3.32-.61.96-.41,1.78-.95,2.44-1.63.66-.68,1.16-1.46,1.51-2.35.35-.89.52-1.81.52-2.76Z"/>
              <path class="cls-1" d="M448.45,155.55c0,3.27-.35,6.1-1.06,8.49-.7,2.39-1.66,4.37-2.88,5.93-1.22,1.56-2.65,2.73-4.31,3.49-1.66.76-3.44,1.15-5.33,1.15s-3.69-.38-5.33-1.15c-1.64-.76-3.07-1.93-4.29-3.49-1.22-1.56-2.17-3.54-2.87-5.93-.7-2.39-1.04-5.22-1.04-8.49s.35-6.1,1.04-8.5c.69-2.4,1.65-4.38,2.87-5.96,1.22-1.57,2.65-2.74,4.29-3.51,1.64-.76,3.42-1.15,5.33-1.15s3.67.38,5.33,1.15c1.66.77,3.1,1.93,4.31,3.51,1.22,1.57,2.18,3.56,2.88,5.96.7,2.4,1.06,5.23,1.06,8.5ZM443.62,155.55c0-2.85-.24-5.24-.72-7.18-.48-1.94-1.12-3.5-1.93-4.68-.81-1.18-1.74-2.03-2.8-2.54-1.06-.51-2.16-.77-3.31-.77s-2.25.26-3.31.77c-1.06.51-1.99,1.36-2.79,2.54-.8,1.18-1.44,2.74-1.92,4.68-.48,1.94-.72,4.33-.72,7.18s.24,5.24.72,7.17c.48,1.93,1.12,3.48,1.92,4.67.8,1.18,1.73,2.03,2.79,2.54,1.06.51,2.16.77,3.31.77s2.25-.26,3.31-.77c1.06-.51,1.99-1.36,2.8-2.54.81-1.18,1.45-2.74,1.93-4.67.48-1.93.72-4.32.72-7.17Z"/>
              <path class="cls-1" d="M478.68,155.55c0,3.27-.35,6.1-1.06,8.49-.7,2.39-1.66,4.37-2.88,5.93-1.22,1.56-2.65,2.73-4.31,3.49-1.66.76-3.44,1.15-5.33,1.15s-3.69-.38-5.33-1.15c-1.64-.76-3.07-1.93-4.29-3.49-1.22-1.56-2.17-3.54-2.87-5.93-.7-2.39-1.04-5.22-1.04-8.49s.35-6.1,1.04-8.5c.69-2.4,1.65-4.38,2.87-5.96,1.22-1.57,2.65-2.74,4.29-3.51,1.64-.76,3.42-1.15,5.33-1.15s3.67.38,5.33,1.15c1.66.77,3.1,1.93,4.31,3.51,1.22,1.57,2.18,3.56,2.88,5.96.7,2.4,1.06,5.23,1.06,8.5ZM473.86,155.55c0-2.85-.24-5.24-.72-7.18-.48-1.94-1.12-3.5-1.93-4.68-.81-1.18-1.74-2.03-2.8-2.54-1.06-.51-2.16-.77-3.31-.77s-2.25.26-3.31.77c-1.06.51-1.99,1.36-2.79,2.54-.8,1.18-1.44,2.74-1.92,4.68-.48,1.94-.72,4.33-.72,7.18s.24,5.24.72,7.17c.48,1.93,1.12,3.48,1.92,4.67.8,1.18,1.73,2.03,2.79,2.54,1.06.51,2.16.77,3.31.77s2.25-.26,3.31-.77c1.06-.51,1.99-1.36,2.8-2.54.81-1.18,1.45-2.74,1.93-4.67.48-1.93.72-4.32.72-7.17Z"/>
              <path class="cls-1" d="M508.92,155.55c0,3.27-.35,6.1-1.06,8.49-.7,2.39-1.66,4.37-2.88,5.93-1.22,1.56-2.65,2.73-4.31,3.49-1.66.76-3.44,1.15-5.33,1.15s-3.69-.38-5.33-1.15c-1.64-.76-3.07-1.93-4.29-3.49-1.22-1.56-2.17-3.54-2.87-5.93-.7-2.39-1.04-5.22-1.04-8.49s.35-6.1,1.04-8.5c.69-2.4,1.65-4.38,2.87-5.96,1.22-1.57,2.65-2.74,4.29-3.51,1.64-.76,3.42-1.15,5.33-1.15s3.67.38,5.33,1.15c1.66.77,3.1,1.93,4.31,3.51,1.22,1.57,2.18,3.56,2.88,5.96.7,2.4,1.06,5.23,1.06,8.5ZM504.1,155.55c0-2.85-.24-5.24-.72-7.18-.48-1.94-1.12-3.5-1.93-4.68-.81-1.18-1.74-2.03-2.8-2.54-1.06-.51-2.16-.77-3.31-.77s-2.25.26-3.31.77c-1.06.51-1.99,1.36-2.79,2.54-.8,1.18-1.44,2.74-1.92,4.68-.48,1.94-.72,4.33-.72,7.18s.24,5.24.72,7.17c.48,1.93,1.12,3.48,1.92,4.67.8,1.18,1.73,2.03,2.79,2.54,1.06.51,2.16.77,3.31.77s2.25-.26,3.31-.77c1.06-.51,1.99-1.36,2.8-2.54.81-1.18,1.45-2.74,1.93-4.67.48-1.93.72-4.32.72-7.17Z"/>
            </g>
          </g>
          <polygon class="cls-4" points="195.65 584.95 660.8 78.85 660.8 192.78 195.65 697.66 195.65 584.95"/>
          <path class="cls-4" d="M660.8,26.51l-465.15,490.95v-55.62L635.55.03c14.06.66,25.25,12.26,25.25,26.48Z"/>
        </g>
        <path class="cls-6" d="M810.94,106.81h-213.3c-7.14,0-12.92,5.79-12.92,12.92v73.25c0,7.14,5.79,12.92,12.92,12.92h18.04l-19.42,51.6,57.06-51.6h157.62c7.14,0,12.92-5.79,12.92-12.92v-73.25c0-7.14-5.79-12.92-12.92-12.92Z"/>
        <polygon class="cls-2" points="596.26 257.51 613.16 257.51 654.69 220.24 660.8 220.24 660.8 205.91 653.32 205.91 596.26 257.51"/>
        <circle class="cls-10" cx="628.51" cy="163.64" r="32.18"/>
        <rect class="cls-10" x="596.33" y="114.76" width="217.67" height="11.73" rx="5.65" ry="5.65"/>
        <g>
          <rect class="cls-10" x="678.19" y="143.84" width="126.31" height="8.74" rx="4.21" ry="4.21"/>
          <rect class="cls-10" x="678.19" y="165.86" width="126.31" height="8.74" rx="4.21" ry="4.21"/>
        </g>
        <polygon class="cls-9" points="690.29 205.91 653.32 205.91 759.51 106.81 789.43 106.81 690.29 205.91"/>
      </g>
      <path class="cls-1" d="M791.59,515.26c-20.33-2.91-49.37-5.52-86.34-7.77-9.49-.58-19.37-1.12-29.6-1.63-.04.12-.05.24-.09.37-1.04,2.84-1.6,5.73-1.84,8.65,7.63.38,15.06.77,22.28,1.18,83.57,4.77,110.3,10.35,118.75,13.16-8.45,2.81-35.17,8.39-118.75,13.16-25.54,1.46-53.77,2.69-83.98,3.68l-43.51-16.84v18.07c-46.35,1.11-96.14,1.69-147.17,1.69-102.53,0-200.07-2.34-274.66-6.6-83.57-4.77-110.3-10.35-118.75-13.16,8.45-2.81,35.17-8.39,118.75-13.16,10.61-.61,21.7-1.17,33.19-1.7.12-3.04.18-6.08.22-9.12-14.94.68-29.2,1.43-42.67,2.25-36.96,2.24-66.01,4.85-86.34,7.77-29.78,4.27-35.43,8.2-35.43,13.97s5.65,9.7,35.43,13.97c20.33,2.91,49.37,5.53,86.34,7.77,75.85,4.6,176.68,7.13,283.92,7.13,51.19,0,100.92-.58,147.17-1.68v14.53l40.46-15.66c35.02-1.13,67.46-2.57,96.29-4.32,36.96-2.24,66.01-4.85,86.34-7.77,29.78-4.27,35.43-8.2,35.43-13.97s-5.65-9.7-35.43-13.97Z"/>
    </g>
  </g>
</svg>