<?xml version="1.0" encoding="UTF-8"?>
<svg id="Layer_2" data-name="Layer 2" xmlns="http://www.w3.org/2000/svg" viewBox="0 0 942.04 837.96">
  <defs>
    <style>
      .cls-1 {
        fill: #0e2a3a;
      }

      .cls-1, .cls-2 {
        opacity: .3;
      }

      .cls-3 {
        fill: #f48b6d;
      }

      .cls-4 {
        fill: #1c5276;
      }

      .cls-5 {
        fill: #ffc0a8;
      }

      .cls-6 {
        fill: #996128;
      }

      .cls-7 {
        fill: #ffaa3f;
      }

      .cls-8, .cls-9, .cls-10 {
        opacity: .2;
      }

      .cls-8, .cls-11 {
        fill: #492e13;
      }

      .cls-12 {
        fill: #ffbaa0;
      }

      .cls-13 {
        fill: #913f63;
      }

      .cls-14 {
        fill: #c4dedb;
      }

      .cls-2 {
        fill: #181921;
      }

      .cls-15 {
        fill: #ce633f;
      }

      .cls-16 {
        fill: #194c68;
      }

      .cls-17 {
        fill: #f1d3c9;
      }

      .cls-18 {
        fill: #0d1b38;
      }

      .cls-19 {
        fill: #e0755c;
      }

      .cls-9, .cls-20 {
        fill: #fff;
      }

      .cls-21 {
        fill: #73827f;
      }

      .cls-22 {
        fill: #d8bdb8;
      }

      .cls-23 {
        fill: #fe8966;
      }

      .cls-24 {
        fill: #3fb8a9;
      }

      .cls-25 {
        fill: #287267;
      }

      .cls-26 {
        fill: #568fa8;
      }

      .cls-27 {
        fill: #dceceb;
      }

      .cls-28 {
        fill: #7f3956;
      }

      .cls-29 {
        fill: #432918;
      }

      .cls-30 {
        fill: #442916;
      }

      .cls-31 {
        fill: #4f8299;
      }

      .cls-32 {
        fill: #cb1e42;
      }

      .cls-33 {
        fill: #b2ceca;
      }

      .cls-34 {
        fill: #f3e8e2;
      }

      .cls-35 {
        opacity: .1;
      }

      .cls-36 {
        fill: #feae8d;
      }

      .cls-37 {
        fill: #edf6f5;
      }

      .cls-38 {
        fill: #ffdebb;
      }

      .cls-39 {
        fill: #fba78b;
      }

      .cls-40 {
        fill: #5f9ab2;
      }

      .cls-41 {
        fill: #023248;
      }

      .cls-42 {
        fill: #914060;
      }

      .cls-43 {
        fill: #e5c8c1;
      }

      .cls-44 {
        fill: #b1e6e0;
      }

      .cls-45 {
        fill: #f2927c;
      }

      .cls-46 {
        fill: #5f6386;
      }

      .cls-47 {
        fill: #b71c41;
      }

      .cls-48 {
        opacity: .5;
      }

      .cls-48, .cls-49 {
        fill: #e58b73;
      }

      .cls-49 {
        opacity: .8;
      }

      .cls-50 {
        fill: #352014;
      }

      .cls-51 {
        fill: #72bae0;
      }

      .cls-10 {
        fill: #03060c;
      }

      .cls-52 {
        fill: #088ebc;
      }

      .cls-53 {
        fill: #67a4c3;
      }

      .cls-54 {
        fill: #93a5a2;
      }
    </style>
  </defs>
  <g id="_ÎÓÈ_1" data-name="—ÎÓÈ_1">
    <g>
      <g>
        <g>
          <path class="cls-53" d="M811.26,154v378.79c0,13.87-11.23,25.11-25.11,25.11H174.9c-13.87,0-25.11-11.25-25.11-25.11V154c0-13.87,11.25-25.11,25.11-25.11h611.24c13.88,0,25.11,11.25,25.11,25.11Z"/>
          <path class="cls-20" d="M792.27,161.94v359.13c0,6.58-5.34,11.92-11.92,11.92H180.7c-6.59,0-11.92-5.34-11.92-11.92V161.94c0-6.58,5.34-11.92,11.92-11.92h599.64c6.59,0,11.92,5.34,11.92,11.92Z"/>
        </g>
        <rect class="cls-40" x="367.79" y="557.91" width="225.47" height="56.53"/>
        <rect class="cls-53" x="341.54" y="602.5" width="277.97" height="40.56"/>
      </g>
      <path class="cls-37" d="M761.57,180.33v13.77H199.48v-13.77c0-8,4.81-14.48,10.75-14.48h540.59c5.94,0,10.75,6.48,10.75,14.48Z"/>
      <path class="cls-20" d="M751.2,186.36H215.87c-2.2,0-3.98-2.4-3.98-5.37h0c0-2.97,1.78-5.37,3.98-5.37h535.33c2.2,0,3.98,2.4,3.98,5.37h0c0,2.97-1.78,5.37-3.98,5.37Z"/>
      <g>
        <path class="cls-30" d="M423.78,95.63s3.48,37.02-12.43,68.07c-15.91,31.05,59.19-21.86,59.19-21.86l-46.76-46.21Z"/>
        <path class="cls-26" d="M204.94,217.74s-12.32,12.13-13.02,35.28c0,0,12.88-10.77,13.02-35.28Z"/>
        <path class="cls-23" d="M651.42,171.51s2.2-12.64,3.41-15.64c2.07-5.13,6.79-14.54,10.57-14.02s1.54,5.75.65,7.62c-.89,1.87-4.69,7.71-3.23,10.49,1.46,2.77-9.46,14.02-11.4,11.56Z"/>
        <path class="cls-31" d="M641.96,180.36s17.95-4.55,29.33,17.73c0,0-16.24,4.36-29.33-17.73Z"/>
        <path class="cls-18" d="M385.09,534.74h69.46c1.34-31.55,3.12-65.14,4.64-91.85,1.51,26.7,3.28,60.29,4.62,91.85h69.46c2.4-14.38,4.83-29.92,6.79-45.56,5.82-46.39-7.52-104.03-7.52-104.03l-31.33,2.65-42.02,3.56-73.37-6.21s-13.32,57.65-7.52,104.03c1.96,15.63,4.39,31.17,6.79,45.56Z"/>
        <path class="cls-23" d="M645.15,188.43l3.19-5.33s1.85-10.73,4.38-13.96c2.54-3.23,6.34-12.89,13.27-9.2,6.92,3.69,12.88,14.42,14.38,20.42,1.5,6-7.8,11.51-9.53,14.51-1.73,3-6.46,9.11-6.46,9.11,0,0-20.22.62-19.23-15.56Z"/>
        <g>
          <path class="cls-45" d="M195.17,223.07s-14.95-10.28-19.94-12.1c-4.98-1.82-19.32-14.08-21.6-12.1-2.28,1.98-1.45,7.27,4.99,12.1,6.44,4.83,12.14,9.22,15.21,13.67,3.07,4.45,18.65,4.04,21.35-1.57Z"/>
          <g>
            <g>
              <path class="cls-32" d="M149.12,201.34c-11.76-11.84-36.22-49.78-30.18-69.54,1.69-5.53,4.66-8.96,8.82-10.19,8.09-2.39,16.99,4.85,17.98,5.68l-2.32,5.59c-2.05-1.71-9.67-7.08-14.05-5.78-2.2.65-3.87,2.8-4.96,6.38-4.71,15.41,16.13,51.11,28.77,63.84l-4.06,4.03Z"/>
              <path class="cls-32" d="M182.1,201.34l-4.06-4.03c12.64-12.72,33.48-48.43,28.77-63.84-1.09-3.58-2.76-5.72-4.97-6.38-4.37-1.3-10.64,2.86-12.69,4.57l-3.68-4.38c.99-.83,9.9-8.07,17.98-5.68,4.16,1.23,7.13,4.66,8.82,10.19,6.04,19.76-18.42,57.7-30.18,69.54Z"/>
              <path class="cls-32" d="M180.39,213.1v5.07h-28.99v-5.07s-20.3-40.03-14.5-66.4c5.8-26.38,21.43-19.86,13.98-66.25h30.03c-.1.61-.19,1.22-.29,1.82-6.75,44.41,8.54,38.4,14.26,64.43,5.8,26.37-14.5,66.4-14.5,66.4Z"/>
              <path class="cls-32" d="M179.83,82.26h-28.27c-1.7,0-3.08-1.38-3.08-3.08h0c0-1.7,1.38-3.08,3.08-3.08h28.27c1.7,0,3.08,1.38,3.08,3.08h0c0,1.7-1.38,3.08-3.08,3.08Z"/>
              <path class="cls-47" d="M180.39,213.1v5.07h-10.31c.01-1.62.06-3.16.16-4.35.36-4.35,9.06-32.26,10.87-42.77,1.82-10.51-1.44-31.53-6.88-47.11-5.44-15.58,0-41.68,0-41.68h6.4c-6.75,44.41,8.54,38.4,14.26,64.43,5.8,26.37-14.5,66.4-14.5,66.4Z"/>
            </g>
            <path class="cls-13" d="M161.71,125.76c-.12-.01-.24-.02-.36-.04-4.93-.49-8.38-2.05-10.26-4.63-1.14-1.56-1.43-3.15-1.47-4.24-.03-.7.59-1.24,1.28-1.13.49.11.84.53.86,1.03.02.76.22,1.94,1.09,3.12,1.52,2.04,4.44,3.3,8.71,3.72.25.02.49.04.74.06-.31.36-.76,1.08-.59,2.11Z"/>
            <path class="cls-13" d="M150.87,115.72h.08s-.04,0-.05,0c0,0-.02,0-.03,0Z"/>
            <path class="cls-20" d="M155.5,119.59l-8.21,29.72,17.15,2.42,7.25-30.42-16.19-1.71ZM161.61,128.08c-1.57,0-2.84-1.27-2.84-2.84s1.27-2.84,2.84-2.84,2.84,1.27,2.84,2.84-1.27,2.84-2.84,2.84Z"/>
            <path class="cls-13" d="M182.07,118.63c-.87.94-2.18,2.34-4.15,3.67-1.88,1.27-4.37,2.47-7.65,3.12-1.59.31-3.38.51-5.38.51-1.01,0-2.08-.05-3.19-.16-.18-1.03.28-1.75.59-2.11,9.18.64,15.65-4.25,17.91-6.25.47-.42,1.22-.3,1.52.26.24.44.44.88.35.97Z"/>
          </g>
          <path class="cls-3" d="M206.39,227.02s-7.48-4.36-19.32-5.82c-11.84-1.45-28.46-3.95-38.43-7.06-9.97-3.12-26.17-12.46-30.12-10.59-3.95,1.87-2.91,3.32,0,5.61,2.91,2.28,30.53,19.11,35.52,20.77,4.98,1.66,22.85,8.31,28.25,8.52,5.4.21,14.54,8.31,20.36,7.48,5.82-.83,8.52-13.92,3.74-18.9Z"/>
          <path class="cls-3" d="M118.53,207.28s-7.69-3.32-5.82-7.06c1.87-3.74,13.49,1,19.52,5.4,6.03,4.4,29.29,11.63,29.29,11.63l-1.87,5.82s-41.13-12.05-41.13-15.79Z"/>
        </g>
        <path class="cls-30" d="M518.16,50.19s14.12,17.72,12.88,39.33.42,34.34,15.79,42.1c15.37,7.75,46.94,19.39,48.05,43.2,1.11,23.82-32.68,78.1-60.37,62.59-27.69-15.51-20.28-66.55-31.49-84.19-11.21-17.64-28.01-12.77-26.91-26.62s39.57-66.43,42.06-76.4Z"/>
        <path class="cls-17" d="M396.58,390.27s43.76,26.59,121.3,0c0,0-16.98-199.35-9.42-225.98,6.16-21.71-13.29-23.26-13.29-23.26l-25.48,9-12.07,16.96-8.42-15.43-14.95-6.38-3.88-4.14-11.29,38.77,5.2,144.01-27.69,66.47Z"/>
        <path d="M448.75,405.91c-37.91,0-59.95-9.76-61.34-10.4l4.75-10.44c.49.22,50.23,21.98,129.3-2.1l3.34,10.97c-29.62,9.02-55.24,11.97-76.06,11.97Z"/>
        <path class="cls-1" d="M445.41,411.04c-42.83,2.08-61.84-14.83-61.84-14.83,10.24,3.95,36.7,12.98,60.64,11.24,0,0,5.77-112.23,1.2-155.04-.34-3.2-.74-6.01-1.2-8.36-4.56-23.14-10.14-52.01-12.67-75.37,3.52,22.73,13.29,51.48,17.25,84.34,5,41.37-3.39,158.02-3.39,158.02Z"/>
        <path class="cls-4" d="M444.21,407.45c-23.94,1.74-50.4-7.29-60.64-11.24-2.79-1.06-4.38-1.77-4.38-1.77,0,0,16.83-51.24,18.5-67.31,1.65-16.06-1.67-47.63-7.21-60.37-4.6-10.6-1.56-30.4-.39-36.75.2-1.13.34-1.82.38-1.98-1.33,1.34-57.73,58.73-69.77,63.1-12.19,4.44-110.77-36-120.19-37.65-9.42-1.67-8.31,1.65,0-9.98,8.31-11.63-.56-23.81,9.42-22.71,9.96,1.11,100.25,27.13,103.57,26.59,3.31-.56,35.44-42.65,39.87-48.75,3.29-4.52,19.68-27.92,27.94-39.72,3.06-4.39,7.62-7.52,12.83-8.82l36.23-9.06c-.2,2.77-.25,5.85-.16,9.19.02.59.03,1.21.07,1.84v.2c.18,5,.64,10.54,1.28,16.42,2.52,23.37,8.11,52.24,12.67,75.37.46,2.34.85,5.16,1.2,8.36,4.57,42.82-1.2,155.04-1.2,155.04Z"/>
        <path class="cls-4" d="M671.29,198.09c-.66,1-26.79,40.77-44.29,67.56-17.73,27.15-31.02,34.34-45.42,29.36-1.46-.51-3.15-1.67-5.01-3.34-13.13-11.8-34.9-49.24-43.46-64.41-.18-.33-.38-.66-.56-1.02-1.92-3.41-3.03-5.46-3.03-5.46,0,0-1.67,5.54-3.33,21.6-1.65,16.07-8.86,50.42-12.19,68.13-1.02,5.44.56,14.81,3.24,25.22.92,3.52,1.95,7.16,3.06,10.8,6.26,20.71,14.75,41.54,14.75,41.54-.46.7-.93,1.38-1.47,2.03-2.65,3.42-6.03,6.1-9.78,8.18-5.13,2.85-10.93,4.6-16.61,5.64-14.14,2.59-27.53.77-27.53.77,0,0-22.25-120.86-16.48-153.35.26-1.52.59-2.83.98-3.95,8.73-24.53,30.33-103.82,31-106.28,0-.05.02-.07.02-.07,0,0,27.72,3.74,45.32,11.21l.02.02c5.87,2.49,10.6,5.39,12.81,8.7,8.86,13.31,36,88.63,42.65,80.88,6.65-7.77,45.98-61.48,45.98-61.48,5.83,11.63,13.17,16.06,19.06,17.57,5.64,1.47,9.93.26,10.27.16Z"/>
        <path class="cls-23" d="M486.8,135.22l-6.67,8.11-23.17,28.23-16.24-38.41s2.51-4.37,2.9-7.08c0,0,24.69-.1,36.11-7.59,0,0,.05.21.15.59.64,2.49,3.31,12.17,6.91,16.14Z"/>
        <path class="cls-23" d="M502.92,61.55c-1.65,21.32-13.01,46.52-19.11,54.01-.51.62-1.11,1.25-1.8,1.85-7.47,6.67-24.66,11.98-38.39,8.67-14.99-3.6-26.27-43.49-24.33-67.57,1.93-24.1,16.34-36.84,16.34-36.84,44.86-29.9,68.97,18.55,67.3,39.88Z"/>
        <path class="cls-15" d="M486.8,135.22l-6.67,8.11c-.72-4.74-1.87-9.98-3.62-12.26-3.54-4.62-8.75-1.95-17.06-1.95s-15.83-3.05-15.83-3.05c12.55,3.03,28-1.15,36.26-7,.64,2.49,3.31,12.17,6.91,16.14Z"/>
        <path class="cls-43" d="M430.37,141.03l8.74-7.13c1.04-.85,2.6-.45,3.09.8,1.61,4.13,5.1,11.99,8.94,13.81,5.26,2.49,5.82,23.06,5.82,23.06l-7.77-18.38-7.89,13.2c-.67,1.12-2.22,1.3-3.12.36-3.04-3.2-8.61-11.11-7.8-25.71Z"/>
        <path class="cls-43" d="M495.17,141.03s-7.55,12.8-14.8,19.84c-5.74,5.59-6.26,1.79-7.39-1.98l-2.41-3.93-3.38-8.95,18.01-14.5c.87-.7,2.15-.56,2.83.33l7.13,9.19Z"/>
        <polygon class="cls-22" points="470.58 154.96 458.6 169.56 456.98 171.54 467.2 146.02 470.58 154.96"/>
        <path class="cls-30" d="M463.75,50.19s-46.13,5.26-51.11-12.19c-4.98-17.45,3.74-42.79,38.63-34.48,34.89,8.31,28.25,17.45,41.54,19.52,13.29,2.08,27.21,29.77,27.21,29.77l-20.98,45.42s2.36-21.6-3.8-26.59c-6.17-4.99-10.32,7.48-11.15,14.12-.83,6.65-12.05,1.66-9.97-8.31,2.08-9.97-10.37-27.28-10.37-27.28Z"/>
        <path class="cls-30" d="M419.07,45.52s14.34,8.82,34.83,8.27c0,0-34.45,5.27-40.35-13.57-5.9-18.84,5.51,5.3,5.51,5.3Z"/>
        <path class="cls-30" d="M529.44,73.82s.46,26.91,7.26,37.3,26.33,15.96,26.33,15.96c0,0-38.21-2.67-42.99-49.61l9.41-3.65Z"/>
        <path class="cls-51" d="M491.57,188.93l5.82,1.95-34.21,60.45c.26-1.52.59-2.83.98-3.95,8.73-24.53,30.33-103.82,31-106.28,0-.05.02-.07.02-.07,2.95,3.8,6.1,44.59,6.1,44.59l-9.7,3.31Z"/>
        <path class="cls-51" d="M422.06,189.21l5.26-4.7h-9.96l13.01-43.47c-1.65,23.25,7.19,69.23,13.85,103.02.46,2.34.85,5.16,1.2,8.36-9.32-12.7-23.35-63.2-23.35-63.2Z"/>
        <path class="cls-16" d="M520.31,346.53l-16.35,5.79c-2.89,1.02-6.09-.36-7.32-3.17l-1.46-3.32,22.07-10.09c.92,3.52,1.95,7.16,3.06,10.8Z"/>
        <path class="cls-1" d="M535.06,388.07c-2.87,4.42-6.8,7.73-11.26,10.21-5.36-14.44-23.84-65.53-22.53-79.03,1.52-15.8,21.88-118.53,21.88-118.53,0,0,4.88,16.93,9.41,25.53-1.92-3.41-3.03-5.46-3.03-5.46,0,0-1.67,5.54-3.33,21.6-1.65,16.07-8.86,50.42-12.19,68.13-1.02,5.44.56,14.81,3.24,25.22.92,3.52,1.95,7.16,3.06,10.8,6.26,20.71,14.75,41.54,14.75,41.54Z"/>
        <path class="cls-1" d="M595.98,241.84c-4.03,5.05-10.52,8.85-23.74-17.2-7.8-15.4-13.34-43.86-22.92-60.94-3.46-6.18-6.6-9.6-8.8-11.44,5.87,2.49,10.6,5.39,12.81,8.7,8.86,13.31,36,88.63,42.65,80.88Z"/>
        <path class="cls-1" d="M671.29,198.09c-.66,1-26.79,40.77-44.29,67.56-17.73,27.15-31.02,34.34-45.42,29.36-1.46-.51-3.15-1.67-5.01-3.34,0,0,13.04.57,23.84-9.82,9.16-8.8,48.76-66.54,60.61-83.93,5.64,1.47,9.93.26,10.27.16Z"/>
        <path class="cls-51" d="M637.08,187.01s6.97,16.34,29.39,18.41l4.82-7.33s-18.32,2.49-29.33-17.73l-4.88,6.65Z"/>
        <path class="cls-10" d="M454.54,534.74c1.53-35.96,3.63-74.56,5.25-102.59-.74-.11-1.57.82-2.57,3-6.86,15.13-9.58,62.49-12.64,99.6h9.95Z"/>
        <path class="cls-10" d="M519.69,534.74h13.57c2.4-14.38,4.83-29.92,6.79-45.56,4.8-38.26-3.44-84.17-6.47-99.08-2.65,3.42-6.03,6.1-9.78,8.18-5.13,2.85-10.93,4.6-16.61,5.64,5.95,17.02,14.47,44.21,16.24,65.02,1.5,17.66-.75,43.74-3.73,65.81Z"/>
        <path class="cls-7" d="M453.01,406.63c-1.1,0-2.14-.42-2.94-1.2-.82-.8-1.28-1.88-1.28-3.03v-4.75c0-2.24,1.75-4.09,3.98-4.22l14.53-.83c2.31-.13,4.27,1.61,4.45,3.88l.41,5.17c.09,1.16-.29,2.29-1.07,3.15-.78.87-1.86,1.37-3.03,1.4l-14.94.41s-.08,0-.12,0ZM467.55,394.25s-.1,0-.15,0l-14.53.83c-1.37.08-2.44,1.21-2.44,2.58v4.75c0,.7.28,1.36.78,1.85.5.49,1.19.75,1.87.73l14.94-.41c.72-.02,1.37-.32,1.85-.86.48-.53.71-1.22.65-1.93l-.41-5.17c-.11-1.34-1.25-2.38-2.58-2.38Z"/>
        <path class="cls-1" d="M390.09,230.01c.2-1.13.34-1.82.38-1.98-1.33,1.34-57.73,58.73-69.77,63.1-12.19,4.44-110.77-36-120.19-37.65-9.42-1.67-8.31,1.65,0-9.98,0,0,100.4,32.49,106.21,30.85,5.8-1.64,2.49-9.95,10.8-7.46,8.31,2.49,15.37-.82,22.01-4.98,6.6-4.13,56.27-46.68,57.04-47.34-.18.44-3.26,7.47-6.47,15.44Z"/>
        <path class="cls-51" d="M191.92,253.02s13.02-13.13,13.02-35.28l8.59,2.22s-5.43,28.69-11.58,33.87l-10.02-.8Z"/>
        <circle class="cls-18" cx="199.48" cy="249.61" r="2.23"/>
        <path class="cls-18" d="M665.49,201.43c0,1.41-1.15,2.56-2.56,2.56s-2.56-1.15-2.56-2.56,1.15-2.56,2.56-2.56,2.56,1.15,2.56,2.56Z"/>
        <path class="cls-18" d="M442.97,271.88c0,2.29-1.86,4.15-4.15,4.15s-4.15-1.86-4.15-4.15,1.86-4.15,4.15-4.15,4.15,1.86,4.15,4.15Z"/>
        <path class="cls-18" d="M442.97,322.15c0,2.29-1.86,4.15-4.15,4.15s-4.15-1.86-4.15-4.15,1.86-4.15,4.15-4.15,4.15,1.86,4.15,4.15Z"/>
        <path class="cls-18" d="M439.69,378.82c0,2.29-1.86,4.15-4.15,4.15s-4.15-1.86-4.15-4.15,1.86-4.15,4.15-4.15,4.15,1.86,4.15,4.15Z"/>
        <g>
          <rect class="cls-42" x="631.76" y="62.1" width="31.41" height="14.23" transform="translate(-.57 132.87) rotate(-11.71)"/>
          <path class="cls-42" d="M674.16,76.08l-8.84,1.85-5.35-25.83,8.84-1.82c.61-.12,1.24-.12,1.82,0,1.75.33,3.25,1.68,3.62,3.55l3.48,16.81c.51,2.5-1.1,4.93-3.58,5.45Z"/>
          <path class="cls-42" d="M622.12,59.58h9.9v26.37h-9.9c-2.06,0-3.73-1.67-3.73-3.73v-18.91c0-2.06,1.67-3.73,3.73-3.73Z" transform="translate(-1.76 128.42) rotate(-11.71)"/>
          <g>
            <path class="cls-42" d="M684.67,209.07l.03.13c.79,3.83-2.42,7.77-7.21,8.76-4.9,1.02-9.52-1.45-10.15-5.45l-21.61-135.67,8.13-1.68,30.82,133.92Z"/>
            <path class="cls-28" d="M684.67,209.07l.03.13c.79,3.83-2.42,7.77-7.21,8.76.73-14.46-28.58-141.79-28.58-141.79l4.94-1.02,30.82,133.92Z"/>
          </g>
          <polygon class="cls-28" points="632.66 75.15 663.51 69.22 664.29 73 633.54 79.38 632.66 75.15"/>
          <path class="cls-28" d="M674.16,76.08l-8.84,1.85s6.8-3.32,7.18-6.69c.4-3.34-3.69-20.97-3.69-20.97h1.82c1.75.33,3.25,1.68,3.62,3.55l3.48,16.81c.51,2.5-1.1,4.93-3.58,5.45Z"/>
          <polygon class="cls-28" points="624.1 59.53 629.69 85.31 634.56 84.3 629.2 58.48 624.1 59.53"/>
        </g>
        <path class="cls-23" d="M671.83,158.53s-7.19,8.27-8.83,8.83c-.92.31-2.62.95-3.79.43-.88-.36-1.46-1.41-1.1-3.75.62-4.1,5.95-9.03,8.45-11.16.9-.75,2.11-1.02,3.24-.69,1.75.54,2.56,1.43,2.85,2.38.56,1.88-.84,3.97-.84,3.97Z"/>
        <path class="cls-19" d="M671.83,158.53s-7.19,8.27-8.83,8.83c-.92.31-2.62.95-3.79.43.48-.29,8.95-5.67,13.44-13.21,0,0,0-.02.02-.02.56,1.88-.84,3.97-.84,3.97Z"/>
        <path class="cls-23" d="M677.3,163.97s-7.49,8.6-9.18,9.19c-.93.31-2.64.93-3.83.49h-.02c-.98-.36-1.62-1.43-1.23-3.95.64-4.28,6.18-9.41,8.8-11.62.92-.79,2.2-1.07,3.36-.7,1.88.57,2.7,1.54,2.98,2.57.52,1.92-.88,4.01-.88,4.01Z"/>
        <path class="cls-19" d="M677.3,163.97s-7.49,8.6-9.18,9.19c-.93.31-2.64.93-3.83.49,4.82-.79,13.89-13.7,13.89-13.7.52,1.92-.88,4.01-.88,4.01Z"/>
        <path class="cls-23" d="M680.71,172.04s-7.24,8.32-8.88,8.88c-.84.28-2.33.84-3.47.56h-.02c-1.06-.26-1.82-1.26-1.43-3.9.62-4.13,5.98-9.08,8.5-11.22.9-.75,2.13-1.03,3.26-.69,1.56.47,2.38,1.23,2.74,2.06.87,1.97-.7,4.31-.7,4.31Z"/>
        <path class="cls-19" d="M680.71,172.04s-7.24,8.32-8.88,8.88c-.84.28-2.33.84-3.47.56,5.55-1.31,13.04-13.75,13.04-13.75h.02c.87,1.97-.7,4.31-.7,4.31Z"/>
        <path class="cls-23" d="M682.92,180.9s-7.24,8.32-8.88,8.88c-.97.33-2.77,1-3.93.39v-.02c-.82-.41-1.33-1.47-.98-3.72.64-4.13,5.98-9.08,8.5-11.22.9-.75,2.13-1.03,3.26-.69,1.28.39,2.05.97,2.47,1.61,1.39,2.02-.44,4.77-.44,4.77Z"/>
        <path class="cls-19" d="M682.92,180.9s-7.24,8.32-8.88,8.88c-.97.33-2.77,1-3.93.39v-.02s3.26-1.64,6.34-4.69c3.1-3.05,5.34-4.34,6.91-9.34,1.39,2.02-.44,4.77-.44,4.77Z"/>
      </g>
      <g>
        <rect class="cls-27" x="422.34" y="400.91" width="264.4" height="133.7"/>
        <polygon class="cls-14" points="704.86 434.98 403.32 434.98 383.42 368.02 723.7 368.3 704.86 434.98"/>
        <polygon class="cls-14" points="673.28 534.61 666.85 534.61 666.85 450.52 436.98 450.52 436.98 534.61 430.55 534.61 430.55 444.09 673.28 444.09 673.28 534.61"/>
        <rect class="cls-54" x="422.34" y="434.98" width="264.4" height="4.83"/>
        <polygon class="cls-54" points="440.05 534.61 440.05 454.79 666.85 450.52 436.98 450.52 436.98 534.61 440.05 534.61"/>
        <polygon class="cls-33" points="396.08 376.51 411.06 426.77 696.33 426.77 711.14 376.51 396.08 376.51"/>
      </g>
      <g>
        <path class="cls-7" d="M674.06,322.42c-3.32,13.99-13.77,21.16-18.77,23.86-.84.45-1.52,1.11-2,1.9-.48.78-.74,1.7-.75,2.65-.01,2.86-2.34,5.17-5.21,5.16l-45.25-.24c-1.43,0-2.73-.59-3.66-1.53-.93-.95-1.5-2.25-1.5-3.67,0-1.9-1.03-3.65-2.7-4.57-4.88-2.7-14.92-9.73-18.32-23.2-1.99-7.87-1.71-17.93,3.2-30.6,1.49-3.85,2.97-7.43,4.42-10.77,14.2-32.83,25.2-42.55,15.43-62.33-2.17-4.41-2.35-7.7-1.28-10.14,10.82.94,29.47,2.03,45.68.43,3.23-.31,6.34-.74,9.29-1.29,1.69,2.55,1.8,6.17-.78,11.28-9.97,19.68.93,29.52,14.79,62.49.15.34.29.69.44,1.05l.56,1.37c1.09,2.65,2.19,5.45,3.3,8.4,4.61,12.27,4.94,22.06,3.1,29.78Z"/>
        <rect class="cls-6" x="625.76" y="298.37" width="13.23" height="128.3" transform="translate(266.58 993) rotate(-89.7)"/>
        <rect class="cls-6" x="469.43" y="298.37" width="13.23" height="128.3" transform="translate(111.06 836.68) rotate(-89.7)"/>
        <path class="cls-38" d="M674.06,322.42c-14.64,4.55-48.49,11.48-98.16.35-1.99-7.87-1.71-17.93,3.2-30.6,1.49-3.85,2.97-7.43,4.42-10.77.63.22,35.48,11.89,83.13.43h0s.43,1.05.43,1.05l.56,1.37c1.09,2.65,2.19,5.45,3.3,8.4,4.61,12.27,4.94,22.06,3.1,29.78Z"/>
        <path class="cls-38" d="M601.64,243.31c.42-2.14.07-3.34.38-4.05.02-.06-3.24.96-3.42,2.8-.2,2.1-.44,4.82-.77,7.19-.22,1.55.88,3.04,2.45,3.14,1.89.13,1.33-2.23,1.36-9.08Z"/>
        <path class="cls-8" d="M674.06,322.42c-3.32,13.99-13.77,21.16-18.77,23.86-.84.45-1.52,1.11-2,1.9-.48.78-.74,1.7-.75,2.65-.01,2.86-2.34,5.17-5.21,5.16l-17.35-.09c1.18-4.63,3.15-8.8,6.42-10.69,9.41-5.43,19.49-44.8,15.63-60.49-3.86-15.69-19.42-37.71-13.9-51.82,5.51-14.1,5.23-23.55,5.23-23.55h0c3.23-.32,6.34-.75,9.29-1.3,1.69,2.55,1.8,6.17-.78,11.28-9.97,19.68.93,29.52,14.79,62.49.15.34.29.69.44,1.05l.56,1.37c1.09,2.65,2.19,5.45,3.3,8.4,4.61,12.27,4.94,22.06,3.1,29.78Z"/>
        <path class="cls-11" d="M603.8,242.39l-12.88,5.49-11.14,22.28c-1.6,3.21.2,7.07,3.69,7.89l10.11,2.38c2.57.61,5.21-.68,6.31-3.08l10.93-23.66-7.03-11.3ZM600.38,253.83c-1.83,0-3.3-1.5-3.29-3.32s1.5-3.3,3.32-3.29,3.3,1.5,3.29,3.32c0,1.83-1.5,3.3-3.32,3.29Z"/>
        <path class="cls-38" d="M650.53,241.84l-.03-.05c-.54-.87-1.62-1.23-2.57-.85-4.06,1.62-13.31,3.91-23.21,5.68-10.47,1.88-18.73,1.17-22.7.75-1.35-.14-2.61.72-2.96,2.03-.01.05-.03.11-.04.16-.33,1.45.69,2.88,2.16,3.15,1.31.25,2.85.53,3.37.54,11.55.06,36.27-4.95,44.96-8.35,1.22-.48,1.71-1.95,1.02-3.07Z"/>
      </g>
      <polygon class="cls-1" points="593.26 557.91 593.26 580.04 367.79 569.9 367.79 557.91 593.26 557.91"/>
      <path class="cls-20" d="M519.83,556.2h-78.62c-4.4,0-7.97-3.57-7.97-7.97h0c0-4.4,3.57-7.97,7.97-7.97h78.62c4.4,0,7.97,3.57,7.97,7.97h0c0,4.4-3.57,7.97-7.97,7.97Z"/>
      <g>
        <rect class="cls-34" y="260.49" width="188.99" height="238.06"/>
        <circle class="cls-20" cx="92" cy="359.33" r="59.29" transform="translate(-227.14 170.3) rotate(-45)"/>
        <path class="cls-12" d="M174.99,284.03H12.18c-3.54,0-6.41-2.87-6.41-6.41h0c0-3.54,2.87-6.41,6.41-6.41h162.8c3.54,0,6.41,2.87,6.41,6.41h0c0,3.54-2.87,6.41-6.41,6.41Z"/>
        <g>
          <g>
            <path class="cls-5" d="M77.45,399.91c-8.22-8.28-25.32-34.79-21.1-48.6,1.18-3.87,3.26-6.26,6.17-7.12,5.65-1.67,11.88,3.39,12.57,3.97l-1.62,3.9c-1.43-1.2-6.76-4.95-9.82-4.04-1.54.46-2.71,1.96-3.47,4.46-3.29,10.77,11.28,35.73,20.11,44.62l-2.84,2.82Z"/>
            <path class="cls-5" d="M100.5,399.91l-2.84-2.82c8.83-8.89,23.4-33.85,20.11-44.62-.76-2.5-1.93-4-3.47-4.46-3.05-.91-7.44,2-8.87,3.2l-2.57-3.06c.69-.58,6.92-5.64,12.57-3.97,2.91.86,4.98,3.26,6.17,7.12,4.22,13.81-12.88,40.33-21.1,48.6Z"/>
            <path class="cls-5" d="M99.31,408.12v3.55h-20.26v-3.55s-14.19-27.98-10.14-46.41c4.06-18.44,14.98-13.88,9.77-46.3h20.99c-.07.43-.13.85-.2,1.27-4.72,31.04,5.97,26.84,9.97,45.04,4.05,18.43-10.13,46.41-10.13,46.41Z"/>
            <path class="cls-5" d="M98.92,316.67h-19.76c-1.19,0-2.15-.96-2.15-2.15h0c0-1.19.96-2.15,2.15-2.15h19.76c1.19,0,2.15.96,2.15,2.15h0c0,1.19-.96,2.15-2.15,2.15Z"/>
            <path class="cls-36" d="M99.31,408.12v3.55h-7.2c0-1.13.04-2.21.11-3.04.25-3.04,6.34-22.55,7.6-29.9,1.27-7.34-1.01-22.04-4.81-32.93-3.8-10.89,0-29.13,0-29.13h4.47c-4.72,31.04,5.97,26.84,9.97,45.04,4.05,18.43-10.13,46.41-10.13,46.41Z"/>
          </g>
          <path class="cls-13" d="M86.25,347.08c-.08,0-.17-.01-.25-.02-3.45-.34-5.86-1.43-7.17-3.24-.79-1.09-1-2.2-1.02-2.96-.02-.49.41-.86.89-.79.34.07.59.37.6.72.01.53.15,1.36.76,2.18,1.06,1.42,3.1,2.3,6.09,2.6.17.02.34.03.51.04-.21.25-.53.75-.41,1.47Z"/>
          <path class="cls-13" d="M78.68,340.06h.05s-.02,0-.03,0c0,0-.01,0-.02,0Z"/>
          <path class="cls-20" d="M81.91,342.77l-5.74,20.77,11.99,1.69,5.07-21.27-11.31-1.19ZM86.18,348.7c-1.1,0-1.98-.89-1.98-1.98s.89-1.98,1.98-1.98,1.98.89,1.98,1.98-.89,1.98-1.98,1.98Z"/>
          <path class="cls-13" d="M100.48,342.1c-.61.65-1.52,1.63-2.9,2.56-1.31.88-3.05,1.72-5.35,2.18-1.11.22-2.36.35-3.76.35-.71,0-1.45-.03-2.23-.11-.12-.72.19-1.22.41-1.47,6.41.45,10.94-2.97,12.52-4.37.33-.29.85-.21,1.06.18.17.31.3.61.24.68Z"/>
        </g>
        <rect class="cls-20" x="16.69" y="434.27" width="149.63" height="9.89" rx="4.73" ry="4.73"/>
        <rect class="cls-20" x="16.69" y="453.78" width="149.63" height="9.89" rx="4.73" ry="4.73"/>
        <rect class="cls-20" x="16.69" y="473.29" width="149.63" height="9.89" rx="4.73" ry="4.73"/>
      </g>
      <g>
        <polygon class="cls-44" points="714.02 0 714.02 234.5 683.9 258.28 714.02 258.28 942.04 258.28 942.04 0 714.02 0"/>
        <g>
          <rect class="cls-24" x="724.65" y="31.72" width="129.72" height="129.72"/>
          <g>
            <path class="cls-37" d="M822.19,120.57c-2.06,8.68-8.54,13.12-11.64,14.8-.52.28-.94.69-1.24,1.18-.3.49-.46,1.05-.47,1.64,0,1.77-1.45,3.21-3.23,3.2l-28.07-.15c-.89,0-1.69-.37-2.27-.95-.58-.59-.93-1.39-.93-2.28,0-1.18-.64-2.26-1.67-2.84-3.02-1.67-9.26-6.04-11.36-14.39-1.23-4.88-1.06-11.12,1.99-18.98.93-2.39,1.84-4.61,2.74-6.68,8.81-20.36,15.63-26.39,9.57-38.66-1.35-2.73-1.46-4.77-.79-6.29,6.71.58,18.28,1.26,28.33.27,2-.19,3.93-.46,5.76-.8,1.05,1.58,1.12,3.83-.48,6.99-6.19,12.21.57,18.31,9.17,38.76.09.21.18.43.27.65l.35.85c.67,1.64,1.36,3.38,2.05,5.21,2.86,7.61,3.06,13.68,1.92,18.47Z"/>
            <polygon class="cls-25" points="825.59 141.49 756.57 141.14 756.53 149.34 825.59 149.7 825.59 141.49"/>
            <path class="cls-20" d="M822.19,120.57c-9.08,2.82-30.08,7.12-60.88.22-1.23-4.88-1.06-11.12,1.99-18.98.93-2.39,1.84-4.61,2.74-6.68.39.14,22,7.38,51.56.27h0l.27.65.35.85c.67,1.64,1.36,3.38,2.05,5.21,2.86,7.61,3.06,13.68,1.92,18.47Z"/>
            <path class="cls-20" d="M777.27,71.51c.26-1.33.04-2.07.24-2.51.01-.03-2.01.59-2.12,1.74-.12,1.3-.27,2.99-.48,4.46-.13.96.55,1.88,1.52,1.95,1.17.08.83-1.39.84-5.63Z"/>
            <path class="cls-8" d="M822.19,120.57c-2.06,8.68-8.54,13.12-11.64,14.8-.52.28-.94.69-1.24,1.18-.3.49-.46,1.05-.47,1.64,0,1.77-1.45,3.21-3.23,3.2l-10.76-.06c.73-2.87,1.96-5.46,3.98-6.63,5.83-3.37,12.09-27.79,9.69-37.52-2.39-9.73-12.04-23.39-8.62-32.14,3.41-8.75,3.24-14.6,3.24-14.6h0c2-.2,3.93-.46,5.76-.8,1.05,1.58,1.12,3.83-.48,6.99-6.19,12.21.57,18.31,9.17,38.76.09.21.18.43.27.65l.35.85c.67,1.64,1.36,3.38,2.05,5.21,2.86,7.61,3.06,13.68,1.92,18.47Z"/>
            <path class="cls-21" d="M778.62,70.93l-7.99,3.41-6.91,13.82c-.99,1.99.13,4.38,2.29,4.89l6.27,1.48c1.59.38,3.23-.42,3.92-1.91l6.78-14.68-4.36-7.01ZM776.49,78.03c-1.13,0-2.05-.93-2.04-2.06,0-1.13.93-2.05,2.06-2.04,1.13,0,2.05.93,2.04,2.06,0,1.13-.93,2.05-2.06,2.04Z"/>
            <path class="cls-20" d="M807.6,70.6l-.02-.03c-.33-.54-1-.76-1.59-.53-2.52,1.01-8.25,2.42-14.39,3.52-6.49,1.16-11.62.72-14.08.46-.84-.09-1.62.44-1.83,1.26,0,.03-.02.07-.02.1-.21.9.43,1.78,1.34,1.95.81.15,1.77.33,2.09.33,7.17.04,22.49-3.07,27.89-5.18.76-.3,1.06-1.21.63-1.9Z"/>
          </g>
          <path class="cls-20" d="M923.37,23.41h-192.42c-4.06,0-7.35-3.29-7.35-7.35h0c0-4.06,3.29-7.35,7.35-7.35h192.42c4.06,0,7.35,3.29,7.35,7.35h0c0,4.06-3.29,7.35-7.35,7.35Z"/>
          <g>
            <g>
              <rect class="cls-24" x="758.33" y="192.74" width="139.4" height="41.75" rx="19.8" ry="19.8"/>
              <g>
                <path class="cls-20" d="M803.73,223.15v-21.38h6.82c1.31,0,2.44.13,3.39.39.95.26,1.73.63,2.34,1.1.61.48,1.06,1.06,1.36,1.75s.44,1.47.44,2.33c0,.53-.08,1.03-.25,1.52-.16.49-.41.94-.75,1.36-.33.42-.75.79-1.25,1.12-.5.33-1.09.6-1.77.81,1.56.31,2.74.87,3.54,1.69.8.82,1.19,1.89,1.19,3.22,0,.91-.17,1.73-.5,2.48-.33.75-.82,1.39-1.46,1.92-.64.54-1.43.95-2.36,1.25s-1.99.44-3.19.44h-7.56ZM806.62,211.35h3.82c.82,0,1.52-.09,2.12-.27.6-.18,1.09-.43,1.48-.75.39-.32.68-.7.87-1.16.19-.45.28-.95.28-1.48,0-1.25-.38-2.17-1.13-2.76-.76-.59-1.93-.88-3.52-.88h-3.92v7.3ZM806.62,213.41v7.44h4.63c.83,0,1.53-.09,2.13-.28.59-.19,1.08-.46,1.46-.8.38-.34.66-.75.84-1.22.18-.47.27-.99.27-1.56,0-1.1-.39-1.98-1.17-2.62s-1.96-.96-3.54-.96h-4.61Z"/>
                <path class="cls-20" d="M826.46,223.15h-2.89v-21.38h2.89v21.38Z"/>
                <path class="cls-20" d="M850.72,212.47c0,1.6-.25,3.06-.76,4.37-.51,1.31-1.22,2.44-2.15,3.37-.93.93-2.03,1.66-3.33,2.17-1.29.51-2.73.77-4.3.77h-8v-21.38h8c1.57,0,3,.26,4.3.77,1.29.51,2.4,1.24,3.33,2.18s1.64,2.07,2.15,3.38c.51,1.31.76,2.77.76,4.37ZM847.75,212.47c0-1.31-.18-2.49-.54-3.52-.36-1.03-.87-1.91-1.52-2.63-.66-.72-1.45-1.26-2.39-1.64-.94-.38-1.97-.57-3.12-.57h-5.09v16.69h5.09c1.14,0,2.18-.19,3.12-.57.93-.38,1.73-.92,2.39-1.63.66-.71,1.16-1.58,1.52-2.62.36-1.03.54-2.21.54-3.52Z"/>
              </g>
            </g>
            <polygon class="cls-9" points="776.34 234.5 806.62 192.74 823.57 192.74 793.32 234.5 776.34 234.5"/>
            <polygon class="cls-9" points="803.73 234.5 832.19 192.74 837.41 192.74 809.08 234.5 803.73 234.5"/>
          </g>
          <path class="cls-24" d="M927.04,39.09h-60.81c-2.03,0-3.68-1.65-3.68-3.68h0c0-2.03,1.65-3.68,3.68-3.68h60.81c2.03,0,3.68,1.65,3.68,3.68h0c0,2.03-1.65,3.68-3.68,3.68Z"/>
          <g>
            <rect class="cls-20" x="862.55" y="63.21" width="68.17" height="5.78"/>
            <rect class="cls-20" x="862.55" y="76.45" width="68.17" height="5.78"/>
            <rect class="cls-20" x="862.55" y="89.7" width="68.17" height="5.78"/>
            <rect class="cls-20" x="862.55" y="102.94" width="45.25" height="5.78"/>
          </g>
          <rect class="cls-20" x="862.55" y="127.63" width="68.17" height="7.3"/>
          <rect class="cls-20" x="862.55" y="141.77" width="68.17" height="7.3"/>
        </g>
      </g>
      <g>
        <ellipse class="cls-33" cx="277.37" cy="822.5" rx="106.25" ry="15.46"/>
        <g>
          <g>
            <path class="cls-39" d="M277.67,404.81c-.29.83-.74,1.6-1.33,2.33h0c-1.98,2.47-5.51,4.37-9.47,5.56-.43,5.56.53,12.67.68,13.71.01.08.02.13.02.13-.05,0-.1.01-.16.01-1.6.11-8.33-.42-14.9-1.01-7.13-.63-14.08-1.32-14.08-1.32,4.03-3.91,3.36-12.12,2.51-17.05-1.34-1.55-2.71-3.54-4.66-6.34-5.3-7.62-16.23-23.18-6.63-39.41,9.61-16.23,27.82-12.58,27.82-12.58,26.16.99,22.86,48.35,20.21,55.97Z"/>
            <path class="cls-39" d="M230.11,341.56c.62-1.86,3.48-8.07,1.74-7.58-1.74.5-1.99,3.48-3.57,5.59-.37.49-.65.86-.86,1.15l.86-6.04c.75-2.13,1.59-4.51,2.09-5.89,1.05-2.93,1.67-4.43-.42-3.5-1.31.58-3.21,5.56-4.44,9.21h-.14c.55-2.52,1.39-6.35,1.82-8.3.68-3.03,1.11-4.6-.85-3.42-1.27.76-2.59,6.28-3.35,10.07.12-2.41.26-5.33.35-6.95.17-3.1.33-4.72-1.41-3.23-1.23,1.05-1.57,7.69-1.66,11.49h-.04v-8.11c0-.23-.08-.46-.22-.65-.4-.54-1.2-.58-1.65-.08-.61.66-.95,1.53-.95,2.43v18.14s-11.92,60.28-13.58,65.91c-1.66,5.63,0,22.19,0,22.19.44-5.54,20.03-8.78,20.03-8.78,0,0-2.81-2.69-3.8-8.78-.91-5.59,5.44-60.44,6.48-69.32,1.09-1.43,3.13-4.21,3.58-5.57Z"/>
            <g>
              <g>
                <path class="cls-32" d="M364.66,381.14l15.17,82.49c.23,1.28,1.42,2.15,2.71,2h0c1.41-.17,2.39-1.49,2.13-2.88l-14.82-82.22-5.2.61Z"/>
                <rect class="cls-32" x="328.93" y="347.09" width="71.95" height="35.11" transform="translate(-63.54 77.32) rotate(-11.13)"/>
                <path class="cls-20" d="M365.2,375.18c-1.18.11-2.29.01-3.33-.28-1.04-.29-1.97-.73-2.8-1.33l.55-1.32c.05-.12.13-.22.24-.31.11-.09.24-.15.37-.17.18-.03.41.02.67.16.26.14.59.3.96.47.38.17.82.33,1.33.46.51.14,1.09.18,1.76.14l-.86-7.75c-.71-.08-1.41-.19-2.11-.32-.69-.14-1.34-.36-1.92-.68-.59-.32-1.1-.76-1.52-1.32-.43-.56-.72-1.31-.89-2.25-.13-.7-.12-1.41.04-2.13.15-.72.44-1.39.87-2,.43-.61,1-1.16,1.7-1.63.71-.47,1.56-.8,2.56-.98l-.24-2.13c-.01-.19.03-.36.13-.53.1-.17.25-.27.46-.31l.95-.17.32,2.89c1.03-.06,1.95.04,2.75.3.8.26,1.54.62,2.22,1.07l-.45,1.06c-.14.32-.33.51-.58.55-.13.02-.31,0-.53-.09-.22-.08-.48-.18-.79-.29-.31-.11-.66-.21-1.05-.3-.39-.09-.83-.13-1.32-.11l.8,7.06c.73.09,1.45.19,2.17.32.72.13,1.38.34,1.99.64.61.3,1.13.71,1.57,1.24.44.53.74,1.24.9,2.13.16.87.16,1.71.01,2.52-.15.81-.45,1.56-.89,2.24-.45.68-1.04,1.27-1.77,1.78-.74.51-1.62.86-2.65,1.04l.3,2.61c.01.19-.03.36-.14.52-.1.16-.26.26-.46.3l-.95.17-.38-3.3ZM360.02,360c.08.46.24.85.46,1.16.23.31.51.57.84.78.34.21.71.37,1.13.49.42.12.87.22,1.35.29l-.75-6.58c-.61.17-1.13.39-1.55.67-.42.28-.75.58-.99.93-.24.34-.4.71-.48,1.09-.08.39-.08.78-.01,1.17ZM369.76,368.11c-.09-.48-.25-.88-.49-1.19-.24-.31-.54-.57-.89-.76-.35-.19-.75-.34-1.2-.45-.45-.11-.92-.19-1.42-.26l.82,7.26c.61-.17,1.14-.41,1.59-.71.45-.3.8-.65,1.07-1.05.27-.4.45-.83.54-1.31.09-.48.08-.98-.02-1.52Z"/>
              </g>
              <path class="cls-39" d="M375.54,456.69s-22.11,33.78-28.57,37.51c-5.77,3.33-31.99-15.57-37.49-19.62-.65-.47-1.01-.75-1.01-.75,0,0,11.17-6.96,9.93-19.12l22.36,19.12s23.6-19.62,29.56-25.33c0,0,2.53-.98,4.49,5.36.25.81.5,1.76.73,2.83Z"/>
              <path class="cls-39" d="M383.53,443.4c-.1-.51-.28-.8-.5-.95.37-.92.62-1.83.5-2.46-.19-.99-.7-1.21-1.15-1.01.26-.75.41-1.46.32-1.97-.14-.75-.47-1.05-.82-1.07.17-.54.25-1.03.16-1.41-.37-1.73-1.86-1.16-2.1,0-.15.75-1.28,2.38-2.07,3.45-.36.25-.7.63-1.02,1.16-.45.75-1.03,1.64-1.66,2.56-.3-1.5.16-2.36.16-2.36l-.46-2.48c-1.13,1.27-2.43,4.86-3.34,5.9-.91,1.04-1.24,5.75-1.24,5.75,3.56.25,5.22,8.2,5.22,8.2.85-1.29,5.06-4.8,6.61-8.95.7-1.32,1.58-3.26,1.38-4.33Z"/>
            </g>
            <g>
              <g>
                <path class="cls-39" d="M294.21,798.75s.75,9.44-1.49,13.54c-2.24,4.1,11.03,4.84,14.65,2.73,3.61-2.11,5.55-4.33,5.23-6.09-.32-1.76-2.11-2.86-2.11-2.86,0,0-2.73-8.32-2.48-10.18.25-1.86-1.24,4.6-13.79,2.86Z"/>
                <path class="cls-41" d="M323.77,813.53s-13.47,11.16-20.09,12.86c-3.43.88-7.01.16-9.2-.1-2.1-.24-3.72-1.49-3.66-4.71,0-.51.06-1.06.16-1.67.49-3.03.63-6.79,1.75-7.63,1.99-1.49,6.64,0,9.78.63,3.14.62,8.73-2.24,9.22-3.48.5-1.24-.49-2.62-.49-2.62,0,0,6.02.44,10.68,3.11.51.29.88.72,1.15,1.2.65,1.12.72,2.41.72,2.41Z"/>
              </g>
              <path class="cls-52" d="M323.77,813.53s-13.47,11.16-20.09,12.86c-3.43.88-7.01.16-9.2-.1-2.1-.24-3.72-1.49-3.66-4.71,0,0,6.48,1.57,12.35.74,5.88-.83,18.83-10.16,19.89-11.21.65,1.12.72,2.41.72,2.41Z"/>
            </g>
            <path class="cls-46" d="M312.94,794.5c-.3,1.94-.33,3.17-1.49,3.97-2.43,1.68-5.64,2.38-8.85,2.56-3.22.17-6.42-.2-8.79-.68-5.66-1.14-5.83-2.77-6.14-11.06-.09-2.4-.23-5.41-.56-9.2-1.49-16.89-2.49-69.05-2.98-77.5-.23-3.86-2.72-11.64-5.45-20.48-3.24-10.5-6.81-22.5-7.29-31.22-.54-9.64-4.45-15.94-8.77-23.96-2.88-5.32-5.94-11.4-8.32-19.72-5.98-20.86,0-31.12,0-31.12l29.69-6.15,21.5-4.46c14.4,25.34,6.96,128.17,9.44,137.11,2.49,8.94,1.57,69.55-1.99,91.91Z"/>
            <g>
              <g>
                <path class="cls-39" d="M238.5,806.6s.74,9.44-1.49,13.54c-2.24,4.1,11.03,4.84,14.65,2.73,3.61-2.11,5.55-4.33,5.23-6.09-.32-1.76-2.11-2.86-2.11-2.86,0,0-2.73-8.32-2.48-10.18.25-1.86-1.24,4.6-13.79,2.86Z"/>
                <path class="cls-41" d="M268.06,821.38s-13.47,11.16-20.09,12.86c-3.43.88-7.01.16-9.2-.1-2.1-.24-3.72-1.49-3.66-4.71,0-.51.06-1.06.16-1.67.49-3.03.63-6.79,1.75-7.63,1.99-1.49,6.64,0,9.78.63,3.14.62,8.73-2.24,9.22-3.48.5-1.24-.49-2.62-.49-2.62,0,0,6.02.44,10.68,3.11.51.29.88.72,1.15,1.2.65,1.12.72,2.41.72,2.41Z"/>
              </g>
              <path class="cls-52" d="M268.06,821.38s-13.47,11.16-20.09,12.86c-3.43.88-7.01.16-9.2-.1-2.1-.24-3.72-1.49-3.66-4.71,0,0,6.48,1.57,12.35.74,5.88-.83,18.83-10.16,19.89-11.21.65,1.12.72,2.41.72,2.41Z"/>
            </g>
            <path class="cls-46" d="M264.25,731.4c-2.48,9.93-2.98,63.59-5.46,71.04-1.05,3.14-5.73,5.49-10.86,6.38-7.02,1.2-14.9-.35-15.48-6.38-.99-10.43-6.46-48.18-4.02-60.11,2.44-11.92,6.01-38.75,6.51-52.16.5-13.41-9.93-46.69-12.42-70.05-2.48-23.35,3.48-50.66,3.48-50.66h42.73l1.99,54.64s.15,13.37.68,26.79v.02c.42,11.11,1.13,22.25,2.2,25.86,2.39,7.95-6.86,44.71-9.35,54.64Z"/>
            <path class="cls-7" d="M314.28,474.07h0c-1.03.83-2.01,1.47-2.8,1.95-.02.01-.05.03-.07.04-1.13.67-1.89.99-1.89.99l-6.51-2.49s1.99,10.93-5.46,16.39c-7.46,5.47-1.99,12.93-2.99,21.37-.99,8.45,18.38,50.66,14.41,57.62-.18.34-.56.65-1.09.97-3.16,1.83-12.04,3.28-22.96,4.19-25.92,2.14-63.23,1.18-61.9-5.16,1.99-9.44,17.88-40.73,16.39-50.67-.83-5.51-2.73-9.95-5.09-15.6-1.9-4.55-4.12-9.87-6.33-17.18-4.96-16.39-9.93-27.81-9.93-27.81,0,0-18.38-15.41-15.41-27.33,2.91-11.67,17.73-8.95,18.36-8.83-.17-.2-1.01-1.15,4.49,4.35,5.96,5.96,12.41-3.97,12.41-3.97,4.94-.82,13.21-.13,19.62.66h.01c5.2.64,9.18,1.34,9.18,1.34.21.11.42.22.65.32,2.12.98,5.02,1.69,8.13,2.22,3.47.58,7.21.92,10.41,1.13,5.93.38,11.61,2.51,16.3,6.16,7.82,6.07,18.53,15.8,19.15,23.96.59,7.53-3.55,12.53-7.11,15.39Z"/>
            <path class="cls-29" d="M270.62,372.98c1.52,2.25,3.03,5.09,2.98,7.45-.1,4.72-.9,6.21-3.38,3.48-2.49-2.73-5.22-8.94-9.44-7.95-4.22.99-1.49,12.91,1.11,18.38,2.29,4.83,1.48,10.11-3.1,16.99-.6.9-1.27,1.84-2.01,2.8-2.1,2.75-2.38,4.75-1.51,6.58,1.05,2.21,3.8,4.15,7.05,6.82,2.14,1.75,4.49,3.81,6.73,6.48,8.45,10.04-5.3,15.56-12.25,25.83-6.96,10.27,5.63,15.9,5.08,28.16-.36,8.05-12.61,17.11-27.55,15.5-4.31-.47-8.84-1.81-13.37-4.33h0c-3.66-2.03-7.31-4.82-10.86-8.52-23.18-24.18,1.49-50.34,10.29-64.74,8.81-14.39,2.62-26.34,1.62-37.71-.99-11.38,0-24.89,13.91-36.32,13.91-11.42,21.12-7.7,29.81-5.96,1.39.28,2.65.62,3.77,1.01,5.9,2.08,8.15,5.85,6.9,11.9-.73,3.55-2.9,6.09-4.9,7.75-1.9,1.57-2.29,4.36-.91,6.41Z"/>
            <path class="cls-2" d="M264.25,731.4c-2.48,9.93-2.98,63.59-5.46,71.04-1.05,3.14-5.73,5.49-10.86,6.38-.17-5.78-2.18-76.95,3.71-89.34,6.14-12.91,8.34-29.8,5.26-38.25-3.09-8.45,3.1-9.93,4.97-17.88.97-4.1,1.18-20.2.74-36.42,4.32,8.02,8.23,14.32,8.77,23.96v.02c.42,11.11,1.13,22.25,2.2,25.86,2.39,7.95-6.86,44.71-9.35,54.64Z"/>
            <path class="cls-2" d="M312.94,794.5c-.3,1.94-.33,3.17-1.49,3.97-2.43,1.68-5.64,2.38-8.85,2.56.34-14.6,1.98-91.68-1.98-98.44-4.37-7.45-5.56-4.47-2.09-13.26,3.48-8.8,1.99-10.09,0-30.46-.72-7.38,4.49-21.95,2.09-36.43-3.11-18.83-14.03-38.11-15.7-47.34,10.91-.91,19.8-2.36,22.96-4.19,11.15,32.04,4.71,123.28,7.04,131.68,2.49,8.94,1.57,69.55-1.99,91.91Z"/>
          </g>
          <path class="cls-35" d="M309.51,477.06l-6.51-2.49s1.99,10.93-5.46,16.39c-7.46,5.47-1.99,12.93-2.99,21.37-.99,8.45,18.38,50.66,14.41,57.62-.18.34-.56.65-1.09.97-3.16,1.83-12.04,3.28-22.96,4.19,0,0-5.35-36.02-5.49-50.25-.14-14.24,5.29-18.08,2.75-25.7-2.54-7.63,7.18-13.63,7.53-27.64.35-14.01-1.18-15.43,10.92-5.87,4.22,3.34,7.85,7.03,10.78,10.42-1.13.67-1.89.99-1.89.99Z"/>
          <path class="cls-35" d="M264.71,490.83c-3.13,21.53-30.39,12.85-30.39,12.85v-.19c14.95,1.62,27.2-7.44,27.57-15.5.55-12.26-12.04-17.88-5.08-28.16,6.95-10.26,20.7-15.79,12.25-25.83-4.14-4.93-8.7-7.81-11.51-10.44,5.21.64,9.2,1.34,9.2,1.34,2.15,1.14,5.33,1.96,8.78,2.54,1.36,1.86,2.7,4.05,3.91,6.57,5,10.52-11.95,21.76-16.46,28.47-4.51,6.72,4.86,6.83,1.74,28.35Z"/>
          <path class="cls-48" d="M375.54,456.69s-22.11,33.78-28.57,37.51c-5.24,3.03-27.39-12.31-35.5-18.17.79-.48,1.77-1.12,2.8-1.95h0s23.09,15.71,27.72,13.28c4.64-2.43,4.12-2.95,8.98-4.16,3.83-.96,17.99-20.91,23.83-29.34.25.81.5,1.76.73,2.83Z"/>
          <path class="cls-50" d="M270.62,372.98c1.52,2.25,3.03,5.09,2.98,7.45-.1,4.72-.9,6.21-3.38,3.48-2.49-2.73-5.22-8.94-9.44-7.95-4.22.99-1.49,12.91,1.11,18.38,2.59,5.47,1.21,11.51-5.11,19.79-2.1,2.75-2.38,4.75-1.51,6.58,1.74,3.66,8.14,6.59,13.78,13.3,8.45,10.04-5.3,15.56-12.25,25.83-6.96,10.27,5.63,15.9,5.08,28.16-.36,8.05-12.61,17.11-27.55,15.5-4.31-.47-8.84-1.81-13.37-4.33h0s29.68.12,26.98-12.84c-2.69-12.96-10.09-24.65-2.69-32.46,7.41-7.81,14.27-10.07,7.37-19.35-6.9-9.29-13.1-18.55-4.68-25.96,8.42-7.4,11.27-9.62,7.53-21.01-3.74-11.39,11.92-19.61,14.28-33.32.43-2.51.29-4.96-.24-7.29,5.9,2.08,8.15,5.85,6.9,11.9-.73,3.55-2.9,6.09-4.9,7.75-1.9,1.57-2.29,4.36-.91,6.41Z"/>
          <path class="cls-49" d="M276.35,407.14h0c-1.98,2.47-5.51,4.37-9.47,5.56-.35,4.51.22,10.03.52,12.52-.23-.1-.45-.21-.65-.32,0,0-3.98-.7-9.18-1.34-1.03-.95-1.83-1.88-2.29-2.86-.87-1.83-.59-3.83,1.51-6.58.73-.97,1.4-1.9,2.01-2.8,1.42-.07,2.96-.12,4.53-.12,6.14,0,13.02-4.07,13.02-4.07Z"/>
        </g>
      </g>
    </g>
  </g>
</svg>